<?xml version="1.0" encoding="utf-8"?>
<svg version="1.1" xmlns="http://www.w3.org/2000/svg" xmlns:xlink="http://www.w3.org/1999/xlink" x="0px" y="0px" width="863px"
	 height="190px" viewBox="0 0 863 190" enable-background="new 0 0 863 190" xml:space="preserve">
<g id="Layer_1">
</g>
<g id="Layer_2">
	<g>
		<path fill="#FDEFD8" d="M130.71,45.35v1.71l-6,1.09v98.22l6,1.09v1.71h-29.47v-1.71l3.82-1.09V48.15H87.87v98.22l3.82,1.09v1.71
			H62.23v-1.71l6-1.09V48.15l-6-1.09v-1.71H130.71z"/>
		<path fill="#FDEFD8" d="M137.53,47.22v-1.87h31.1l0.55,1.56l-5.18,1.25l15.82,50.98h4.37l9.55-42.4
			c1.64-7.79,7.91-12.16,21.83-12.16v21.51h-3.82c0-4.21-1.91-6.86-6.27-6.86c-5.18,0-8.18,3.59-8.73,5.77l-10.91,48.95
			c14.46,2.18,26.46,9.82,26.46,18.24c0,10.76-16.37,19.33-34.65,19.33c-19.1,0-34.92-8.58-34.92-19.33
			c0-9.98,15.82-18.55,34.92-18.55h2.46l2.73-11.69h-27.83v-1.56l5.73-1.25l-16.64-50.98L137.53,47.22z M164.26,130.78v-2.03h3.27
			c4.37,0,8.18-3.12,9.28-5.61l2.73-7.17h-1.36c-13.64,0-24.83,5.77-24.83,12.47c0,6.86,11.19,12.63,24.83,12.63
			c13.64,0,25.1-5.77,25.1-12.63c0-5.46-7.91-10.45-18.28-12l-1.64,4.99c-0.54,1.87-0.82,2.65-0.82,2.96c0,2.18,1.91,4.52,6,4.52
			h4.09v1.87H164.26z"/>
		<path fill="#FDEFD8" d="M282.4,146.37l5.73,1.25v1.56h-31.1v-1.56l5.73-1.25V48.15h-17.19c0,5.92,3.55,22.92,3.55,25.88
			c0,7.64-6.82,10.91-13.64,10.91c-11.19,0-14.19-4.99-14.19-8.11c0-3.27,3.82-6.08,10.37-6.08c5.46,0,9.55,2.34,9.55,5.61
			c0,3.12-3.55,5.46-8.73,5.46v1.09c4.91,0.62,12-2.03,12-7.48c0-11.07-6-19.33-24.01-29l1.36-1.87l4.09,0.78h93.31l4.09-0.78
			l1.36,1.87c-18.01,9.67-23.74,12.94-23.74,24.01c0,5.46,7.09,8.11,12,7.48v-1.09c-5.18,0-8.73-2.34-8.73-5.46
			c0-3.27,4.09-5.61,9.55-5.61c6.55,0,10.37,2.81,10.37,6.08c0,3.12-3,8.11-14.19,8.11c-6.82,0-13.64-3.27-13.64-10.91
			c0-2.96,3.27-14.97,3.27-20.89H282.4V146.37z"/>
		<path fill="#FDEFD8" d="M361.25,45.35v1.71l-6,1.09V89c0,10.6,15.28,18.4,33.01,18.4c1.91,0,3.82-0.16,6-0.31l1.09,2.96
			l-3.27,0.31v36.01l5.73,1.25v1.56H329.6v-1.71l6-1.09V48.15l-6-1.09v-1.71H361.25z M372.43,146.37v-37.88
			c-7.09-2.18-12.28-4.21-17.19-8.42v46.3H372.43z"/>
		<path fill="#FDEFD8" d="M512.12,100.69l-3.55-1.4l1.09-2.03h24.01l1.36,1.71l-3.27,1.71V130c0,9.51-9,19.96-33.83,19.96
			c-10.37,0-22.64-3.59-22.64-11.38c0-3.74,4.37-7.17,9.55-7.17c5.73,0,10.09,2.18,10.09,5.46c0,3.59-3.55,5.61-8.73,5.61
			c-3.55,0-5.46-1.25-6-2.49l-0.82,0.16c0.82,4.05,9.28,7.02,17.19,7.02c8.73,0,14.19-3.27,14.19-9.2c0-3.9-2.18-6.08-8.46-9.2
			c-14.73-7.02-27.01-13.72-27.01-26.35V60.47c0-9.67,6.82-15.9,28.65-15.9c19.92,0,27.83,6.24,27.83,14.03v4.21l3,0.94v1.4h-25.92
			v-1.4l3.27-0.94v-3.74c0-7.64-0.27-11.69-9-11.69c-6.82,0-8.18,4.05-8.18,8.42v46.77c0,19.8,8.73,20.27,17.19,27.44V100.69z"/>
		<path fill="#FDEFD8" d="M569.14,84.32l17.19-17.77v-18.4l-3.82-1.09v-1.71h29.47v1.71l-6,1.09v98.22l6,1.09v1.71h-29.47v-1.71
			l3.82-1.09V74.34l-17.19,17.46v54.56l3.82,1.09v1.71h-29.47v-1.71l6-1.09V48.15l-6-1.09v-1.71h29.47v1.71l-3.82,1.09V84.32z"/>
		<path fill="#FDEFD8" d="M689.46,45.35v1.71l-6,0.94v98.37l6,1.25v1.56h-29.47v-1.4l3.82-1.4V71.85l-6.27,7.95
			c-7.64,9.82-13.91,22.92-13.91,34.77v31.8l3.82,1.4v1.4h-29.47v-1.56l6-1.25v-30.09c0-34.77,39.83-35.54,39.83-60.18
			c0-4.52-7.91-8.73-17.19-8.73c-7.91,0-14.46,2.81-15.55,6.86l0.82,0.16c0.55-1.25,2.46-2.5,6-2.5c5.18,0,8.73,2.03,8.73,5.61
			c0,3.27-4.37,5.46-10.09,5.46c-5.18,0-9.55-3.43-9.55-7.17c0-7.79,10.91-11.22,18.83-11.22c8.18,0,13.64,1.25,18.01,4.68v-3.9
			H689.46z"/>
		<path fill="#FDEFD8" d="M726.83,45.35v1.71l-6,1.09V89c0,10.6,15.28,18.4,33.01,18.4c1.91,0,3.82-0.16,6-0.31l1.09,2.96
			l-3.27,0.31v36.01l5.73,1.25v1.56h-68.21v-1.71l6-1.09V48.15l-6-1.09v-1.71H726.83z M738.02,146.37v-37.88
			c-7.09-2.18-12.28-4.21-17.19-8.42v46.3H738.02z M774.85,48.15l-3.82-1.09v-1.71h29.47v1.71l-6,1.09v98.22l6,1.09v1.71h-29.47
			v-1.71l3.82-1.09V48.15z"/>
	</g>
</g>
</svg>
