<?xml version="1.0" encoding="utf-8"?>
<!-- Generator: Adobe Illustrator 22.0.1, SVG Export Plug-In . SVG Version: 6.00 Build 0)  -->
<svg version="1.1" id="body" xmlns="http://www.w3.org/2000/svg" xmlns:xlink="http://www.w3.org/1999/xlink" x="0px" y="0px"
	 width="597.8px" height="608.2px" viewBox="0 0 597.8 608.2" style="enable-background:new 0 0 597.8 608.2;" xml:space="preserve"
	>
<style type="text/css">
	.st0{fill:#E6E6E6;}
</style>
<path class="st0" d="M257.2,329.2c0.5,0.1,0.9,0.3,1.4,0.4c2.3,5.8,3.3,11.9,2.3,18.2c-0.7,4.2-1.5,8.3-1.7,12.5
	c-0.2,3.2,1.9,5.6,5,6.2c1.9,0.3,5.2-0.3,5.8-1.6c4.4-8.6,7.5-17.6,6.8-27.5c-0.5-6.8-0.9-13.7-0.8-20.5c0.2-10.9,0.3-21.9-3.9-32.1
	c-5.8-14.1-4.4-29.2-7.1-43.7c-1.9-10-4.7-19-11.4-26.7c-3.9-4.5-8.2-8.6-10.4-14.4c-2-5.4-4.4-10.5-6.3-15.9c-1-2.9-1.7-6-1.6-9
	c0.3-10.7-0.9-21.1-4.6-31.3c-5.1-14.2-15.6-22.4-31.5-21.8c-2,0.1-4.3-0.9-6.2-2c-5.8-3.2-11.5-6.8-17.3-9.9
	c-1.7-0.9-2.4-1.7-2.3-3.6c0.1-4.6,0-9.2,0-13.8c0-0.6,0-1.3,0.3-1.8c2.4-4.1,1.5-9.8,6.2-12.8c0.5-0.3,0.6-1.3,0.8-2
	c0.7-2.3,1.4-4.7,2.2-7c0.9-2.4,2.3-4.8,2.7-7.3c0.3-1.7-0.1-4.7-1.3-5.4c-3.4-2-3.4-4.8-3.5-7.9c-0.1-1.2-0.3-2.5-0.9-3.6
	c-4.9-9.3-12.7-15.4-22.8-17.6c-12.3-2.8-21.4,3.7-29.2,12.2c-3.2,3.4-5.2,7.6-4.9,12.6c0,0.9-0.5,2.1-1.2,2.7
	c-3.8,3.1-4.2,4.7-2.5,9.3c1.5,4,2.9,8.1,4.4,12.2c0.4,1,0.9,2.2,1.7,2.9c4.1,3.4,4.3,8.6,5.2,13.1c1,4.7,0.3,9.7,0.1,14.6
	c-0.1,1.1-1.1,2.5-2.1,3.2c-5.1,3.1-10.4,5.8-15.4,9.1c-3.3,2.2-6.5,3-10.4,3.1c-10.8,0.1-19.3,4.3-25.2,13.9
	c-6.9,11.4-8,23.8-8.3,36.6c-0.1,4-0.9,8.1-2,12c-1.1,3.8-3.1,7.3-4.4,11.1c-2.4,6.8-6.1,12.7-11.1,17.9c-2.5,2.7-4.9,5.7-6.6,9
	c-6.2,11.6-6.7,24.6-7.8,37.3c-0.6,6.9-1.4,13.5-3.5,20.2c-3.1,9.7-6,19.5-5.4,30c0.3,5.7,1.1,11.6,0.3,17.2
	c-1.9,12.3-0.9,24.1,4.3,35.5c1.3,2.8,2.7,4.7,6.1,4.2c3.3-0.5,5.7-2.2,6-5.6c0.2-2.9,0.1-6.1-0.7-8.9c-1.9-6.8-1.9-13.5,0.6-20.2
	c0.4-0.9,1.1-1.7,1.7-2.6c0.7,0.8,1.5,1.5,1.9,2.4c1.5,3.4,2.7,7,4.5,10.2c0.6,1.1,3.1,2.1,4.3,1.7s2.6-2.4,2.7-3.9
	c0.2-2.3-0.5-4.6-0.9-6.9c-0.6-3.9-2.1-7.8-1.8-11.6c0.3-4.4-0.9-8.1-2.7-11.8c-1.3-2.6-3.1-5-4.5-7.7c-0.6-1.1-1-2.6-0.8-3.8
	c2.2-8.6,5.7-16.6,10.4-24.2c3.2-5.1,6.5-10.5,8.2-16.2c2.3-7.6,2.8-15.7,6.8-22.8c0.6-1,0.4-2.5,0.9-3.6c1-2.5,1.8-5.3,3.5-7.2
	c5.5-6,9.1-13,11.8-20.6c1.3-3.5,2.5-7,3.9-10.8c3.5,9.2,6.8,17.9,10.3,26.5c3.2,7.8,4.4,15.7,2.6,24.1c-1.8,8.4-3.3,16.9-4.9,25.3
	c-1.5,8.3-3,16.6-4.5,25c-1.4,7.8-3.2,15.6-4.1,23.5c-1.3,11-1.9,22.1-3,33.2c-1.9,18.8,0.3,36.8,8.8,53.9
	c4.1,8.3,6.1,16.7,3.3,26.3c-3.5,12.3-6.1,24.9-8.4,37.5c-1.9,10.6-1.6,21.3,2.7,31.7c5.5,13.5,7.9,27.5,6.5,42.1
	c-0.6,6.6-0.7,13.2-1.6,19.8c-0.3,2.6-1.5,5.6-3.3,7.5c-3.2,3.4-7.2,6-10.6,9.3c-1.2,1.2-2.4,3.7-1.9,5.1c0.4,1.4,2.8,3.1,4.4,3.1
	c8.7,0,17.5-0.4,26.2-0.7c0.6,0,1.2-0.3,1.7-0.7c5.5-3.6,10.5-7.6,9.8-15.1c-0.7-8.8-1.5-17.5-2.8-26.2c-2.1-13.7,1.5-26.4,5.8-39.1
	c3.6-10.7,6.4-21.6,5.8-32.9c-0.4-8.3-1.5-16.7-2.3-25c-0.4-4.5-1.3-9-0.8-13.4c0.9-8.2,2.8-16.2,4.2-24.3
	c1.3-7.7,3.6-15.5,3.6-23.2c-0.1-20.4,5.4-40.1,6.7-60.2c0.1-2.2,1.8-4.2,2.8-6.3c0.6,0.1,1.2,0.1,1.9,0.2c0.8,3.1,1.8,6.2,2.3,9.4
	c0.9,5.9,1.3,11.9,2.2,17.8c0.6,4.3,2.1,8.6,2.3,12.9c0.8,21.9,3.7,43.5,8.2,64.9c1.1,5.2,1.6,10.6,1.4,15.9
	c-0.3,7.6-1.2,15.2-2.2,22.7c-2.3,16.8,1.7,32.6,7.1,48.3c2.6,7.4,4.3,15.5,4.3,23.4c0,9.4-2,18.8-3.4,28.1
	c-1.3,8.3-0.1,15.6,7.2,20.9c2.8,2,5.8,3.4,9.5,1.9c0.8-0.3,2.1-0.4,2.8,0c6.5,3.4,13.1,1.3,19.7,0.6c3.3-0.3,4.3-4.6,1.8-7.1
	c-1.8-1.8-4.3-3-6.1-4.8c-2.9-3.1-7.5-6.2-8-9.8c-1.6-12.3-2.4-24.9-2.2-37.3c0.1-7.3,2.7-14.6,4.4-21.8c1.5-6.1,4.3-12.1,5-18.3
	c2.2-18.9-3.1-36.9-8.2-54.7c-2.7-9.7-2.2-18.6,2.3-27.5c7.8-15.4,10.9-31.7,9.6-48.9c-0.8-11.1-1.9-22.1-3-33.2
	c-0.7-7.1-1.1-14.3-2.8-21.1c-3-11.9-5-23.8-6.9-35.9c-1.3-8.4-3.4-16.6-4.7-25c-0.6-4.2-1.1-9,0.2-12.9c2.9-9.3,6.9-18.3,10.3-27.5
	c0.9-2.5,1.5-5.1,2.5-8.6c0.7,2.2,1,3.4,1.5,4.5c3.3,7.5,5.9,15.4,10.2,22.3c3.3,5.2,7.3,9.8,8.8,16.1c1.4,6,3.7,11.8,5.6,17.7
	c1.4,4.4,2.2,9.3,4.5,13.3c5.7,10.1,12.1,19.7,15,31.1c0.6,2.2,0.5,3.8-1,5.8c-4.3,6-7.9,12.4-6.5,20.4c0.3,1.5-0.4,3.2-0.8,4.7
	c-0.9,3.9-2.1,7.7-2.5,11.6c-0.1,1.4,1.6,3.8,3.1,4.4c1.1,0.5,3.6-0.8,4.5-2c1.5-2.1,2.1-4.7,3.1-7.1
	C255.6,332.8,256.4,331,257.2,329.2z M544.6,338.4c0.3,0.1,0.5,0.1,0.8,0.2c0.4,3.8,1,7.6,1.2,11.4c0.2,3.2,0,6.4-0.4,9.5
	c-0.5,3.8-0.4,7.4,1.7,10.8c2.8,4.5,7.3,4.6,10.1,0.2c3.1-4.9,5-10.2,5.1-16.2c0-14.6,0.2-29.2,0.2-43.8c0-2.2-0.7-4.4-1.1-6.6
	c-2.1-9.3-4.9-18.6-6.3-28c-1.7-10.8-1.8-21.9-3.3-32.8c-1.7-12.2-6.8-23-15.4-32.1c-2.1-2.2-3.6-5.3-4.7-8.2
	c-2.3-5.9-3.9-12.1-6.5-17.9c-2.4-5.4-3.1-10.7-2.4-16.6c1.4-12-2.8-22.4-10.3-31.8c-7.6-9.5-20.4-10-29.1-17.4
	c-0.1-0.1-0.3,0-0.4-0.1c-6.5-2.5-13.1-4.8-19.5-7.5c-1.3-0.5-2.8-2.2-2.9-3.4c-0.5-10.2-0.7-20.4-0.8-30.7c0-1.1,0.7-2.3,1.3-3.4
	c1.8-3.2,4.4-6.1,5.5-9.6c0.9-3.1,1.1-7.2-0.3-9.9c-0.8-1.6-1.7-3.1-1.9-5c-0.1-1.4-0.2-2.8-0.6-4c-3.5-9.6-10.8-15.4-20-18.7
	c-10.6-3.7-22.1,1.7-29,10.5c-2.5,3.2-3.9,7.4-5.2,11.2c-0.8,2.1,0.1,4.6-2.5,6.3c-1,0.6-1.3,3.2-1,4.7c0.7,3.2,1.4,6.9,3.3,9.4
	c4.8,6.2,6.4,12.9,5.3,20.6c-0.6,4.4-0.9,8.9-1.1,13.4c-0.3,9.5-1,6.8-7.9,10.6c-0.9,0.5-1.9,0.6-2.8,1c-7.9,2.8-16.4,4.6-22.6,11
	c-0.5,0.5-1.3,0.8-2,0.8c-7,0.1-11.8,4.3-16.1,9c-9.3,10.2-13.4,22.3-11.1,36.2c0.6,3.5,0,6.5-1.3,9.7c-2.9,7.4-5.1,15-7.8,22.5
	c-0.7,1.9-1.9,3.7-3.1,5.4c-3.9,5.5-8.5,10.5-11.6,16.4c-6.2,11.7-6.8,24.9-7.6,37.8c-0.7,12.4-2.9,24.4-6.3,36.3
	c-1.3,4.6-3.6,9.1-2.2,14.2c0.6,2.2,0.8,4.7,0.7,7c-0.1,10.4-0.5,20.7-0.6,31.1c-0.1,6.8,1.2,13.4,5.7,18.9c2.9,3.5,6.3,3.7,8.6-0.1
	c1.7-2.9,3.3-7.1,2.4-10c-2.2-8,1-15.3,1.2-23c1.2,1.6,2,3.4,3,5.1c0.8,1.4,1.4,3.2,2.6,3.9c1.5,1,3.8,1.8,5.4,1.3
	c1.3-0.4,2.7-2.8,2.7-4.3c0.1-3.1-0.6-6.2-1.1-9.2c-0.6-3.4-1.9-6.7-1.9-10.1c-0.1-5.2-1.5-9.7-4.7-13.8c-2-2.6-4.1-5.6-2.6-9.3
	c1.9-4.6,3.7-9.3,5.9-13.7c5.9-11.7,10.8-23.6,14.3-36.3c2.8-10.1,4.7-21,12.4-29.2c1-1.1,1.7-2.4,2.4-3.8c4.2-7.9,8.3-15.7,12.2-23
	c3.3,9.8,6.4,20.4,10.4,30.7c1.9,4.9,2,9.4,1.1,14.2c-1,5.9-1.9,11.8-2.8,17.7c-1.3,8.2-0.6,16.9-4.3,24.6
	c-3.3,6.9-4.1,14.2-4.5,21.7c-0.6,10.5-1.8,20.9-3,31.3c-1.5,12.8-3.2,25.6-0.2,38.4c2,8.8,3.4,18.1,7.1,26.2c3.4,7.6,5.1,14.9,4,23
	c-0.4,2.6-0.2,5.2-0.4,7.9c-0.3,2.7-0.5,5.5-1.3,8c-3.9,12.9-8.3,25.7-7.3,39.4c0.4,5.9,1,12.2,3.5,17.4c5.2,10.9,6.5,22.5,7,34.2
	c0.4,8.8-0.8,17.7-1.2,26.5c-0.3,8.9-3.6,15.2-12.9,17.7c-1.7,0.4-3.6,3.4-3.7,5.2c0,1.4,2.5,3.5,4.3,4.1c2.4,0.8,5.2,0.8,7.8,0.5
	c5.7-0.6,11.3-1,17.1,0.2c10.5,2.2,17.4-7.5,14.7-15.4c-1.1-3.4-1.4-7.1-1.5-10.7c0-12.4,0.1-24.7,0.5-37.1c0.1-3,1.2-6,2.1-8.9
	c2.5-8.4,5.8-16.7,7.4-25.3c2.3-12.7,0.8-25.3-3.3-37.6c-1.4-4.2-1-8.5,1-12.7c2.1-4.3,4.5-8.9,5.1-13.5c1.5-12.4,3.2-24.8,2.9-37.2
	c-0.5-18.8,2.1-37,7.6-53.7c1,4.2,1.9,9.6,3.6,14.8c2.1,6.5,3.4,12.9,3.5,19.8c0.1,14.1,0.3,28.3,1,42.3c0.5,9.2,2.2,18.3,6.8,26.6
	c2.1,3.8,3.1,7.7,2.1,12.2c-1.7,6.9-3.6,13.8-4.4,20.8c-1.3,11.8,0.2,23.4,4.3,34.6c2.1,5.8,5.1,11.6,5.6,17.6
	c1,12.2,0.6,24.5,0.6,36.7c0,3.3-0.6,6.7-1.4,10c-2.7,11.6,4.5,18.8,16.3,16.7c4.3-0.8,8.9-0.2,13.4-0.2c3.1,0,6.2,0.1,9.3-0.1
	c2.5-0.2,4.6-1.2,5-4.1c0.4-3.3-1.8-4.9-4.4-5.6c-7.7-2-11.5-7.1-12.1-14.7c-0.7-8.2-1.6-16.4-1.6-24.6c-0.1-11.8,0.6-23.7,5.6-34.5
	c6.9-14.8,6.3-29.7,2.4-44.8c-2.8-10.8-6.3-21.4-6.4-32.8c-0.1-7.1,0.4-13.4,3.3-20.2c9.4-21.4,10.9-44,7.9-67.1
	c-1.6-12.2-2.3-24.6-3.4-36.9c-0.2-2.2-0.4-4.5-1.1-6.6c-1.8-6.1-4.5-11.9-5.6-18.1c-2-10.8-3.3-21.7-4.6-32.6
	c-0.7-6.1-0.8-12,2.1-17.9c2.5-5.2,3.8-11,5.5-16.6c1.2-3.9,2.3-7.7,3.7-12.4c0.7,1.5,1,2.2,1.4,2.9c4.5,8.5,8.2,17.7,13.9,25.4
	c5.9,7.8,7.7,16.8,10.8,25.5c3.3,9.1,6,18.5,9.5,27.5c2.9,7.4,6.8,14.3,10.1,21.5c2.4,5.1,2.2,9.9-1.7,14.5
	c-1.5,1.8-2.6,4.3-3.2,6.7c-1.6,7.1-2.9,14.3-4.2,21.5c-0.2,0.8-0.1,1.7-0.1,2.6c-0.1,2.7,0.8,5.2,3.5,5.9c2.8,0.8,5.1-0.6,6.4-3.2
	C542.2,343.1,543.4,340.8,544.6,338.4z"/>
<path d="M257.2,329.2c-0.8,1.8-1.6,3.6-2.3,5.4c-1,2.4-1.7,5-3.1,7.1c-0.9,1.2-3.4,2.5-4.5,2c-1.5-0.6-3.2-3-3.1-4.4
	c0.3-3.9,1.6-7.7,2.5-11.6c0.3-1.6,1-3.2,0.8-4.7c-1.4-8,2.1-14.4,6.5-20.4c1.5-2,1.5-3.6,1-5.8c-2.9-11.4-9.3-21.1-15-31.1
	c-2.2-4-3-8.8-4.5-13.3c-1.9-5.9-4.2-11.7-5.6-17.7c-1.5-6.3-5.5-10.9-8.8-16.1c-4.3-6.9-6.9-14.8-10.2-22.3
	c-0.5-1.1-0.8-2.3-1.5-4.5c-1,3.5-1.6,6.1-2.5,8.6c-3.4,9.2-7.4,18.1-10.3,27.5c-1.2,4-0.8,8.7-0.2,12.9c1.2,8.4,3.4,16.6,4.7,25
	c1.9,12.1,3.9,24,6.9,35.9c1.7,6.8,2.1,14,2.8,21.1c1.1,11.1,2.2,22.1,3,33.2c1.3,17.2-1.8,33.5-9.6,48.9
	c-4.5,8.9-5.1,17.8-2.3,27.5c5.1,17.9,10.3,35.9,8.2,54.7c-0.7,6.2-3.5,12.1-5,18.3c-1.8,7.2-4.3,14.5-4.4,21.8
	c-0.2,12.4,0.6,25,2.2,37.3c0.5,3.6,5,6.7,8,9.8c1.8,1.9,4.2,3,6.1,4.8c2.4,2.4,1.4,6.7-1.8,7.1c-6.5,0.7-13.2,2.7-19.7-0.6
	c-0.7-0.4-2-0.3-2.8,0c-3.6,1.4-6.7,0.1-9.5-1.9c-7.3-5.2-8.5-12.6-7.2-20.9c1.4-9.3,3.4-18.7,3.4-28.1c0-7.8-1.8-15.9-4.3-23.4
	c-5.4-15.7-9.4-31.5-7.1-48.3c1-7.5,2-15.1,2.2-22.7c0.2-5.3-0.4-10.7-1.4-15.9c-4.4-21.4-7.3-43-8.2-64.9
	c-0.2-4.3-1.7-8.6-2.3-12.9c-0.8-5.9-1.3-11.9-2.2-17.8c-0.5-3.2-1.5-6.3-2.3-9.4c-0.6-0.1-1.2-0.1-1.9-0.2c-1,2.1-2.6,4.2-2.8,6.3
	c-1.3,20.2-6.7,39.9-6.7,60.2c0,7.7-2.3,15.5-3.6,23.2c-1.4,8.1-3.2,16.2-4.2,24.3c-0.5,4.4,0.4,8.9,0.8,13.4
	c0.7,8.3,1.8,16.6,2.3,25c0.6,11.4-2.2,22.3-5.8,32.9c-4.3,12.7-7.9,25.4-5.8,39.1c1.3,8.7,2.1,17.5,2.8,26.2
	c0.6,7.4-4.4,11.5-9.8,15.1c-0.5,0.3-1.1,0.7-1.7,0.7c-8.7,0.3-17.5,0.7-26.2,0.7c-1.5,0-4-1.7-4.4-3.1c-0.4-1.4,0.7-3.9,1.9-5.1
	c3.3-3.3,7.4-5.9,10.6-9.3c1.8-1.9,2.9-4.9,3.3-7.5c0.9-6.6,1-13.2,1.6-19.8c1.3-14.6-1-28.6-6.5-42.1c-4.3-10.3-4.6-21-2.7-31.7
	c2.2-12.6,4.8-25.2,8.4-37.5c2.8-9.6,0.8-18-3.3-26.3c-8.4-17.1-10.7-35.1-8.8-53.9c1.1-11,1.7-22.2,3-33.2c1-7.9,2.7-15.7,4.1-23.5
	c1.5-8.3,3-16.6,4.5-25c1.6-8.5,3-16.9,4.9-25.3c1.8-8.4,0.6-16.3-2.6-24.1c-3.5-8.6-6.7-17.3-10.3-26.5c-1.4,3.8-2.6,7.3-3.9,10.8
	C88.2,211,84.6,218,79.2,224c-1.7,1.9-2.5,4.7-3.5,7.2c-0.5,1.1-0.3,2.6-0.9,3.6c-4,7.1-4.5,15.2-6.8,22.8c-1.7,5.7-5,11.1-8.2,16.2
	c-4.7,7.6-8.3,15.6-10.4,24.2c-0.3,1.1,0.2,2.7,0.8,3.8c1.4,2.6,3.2,5,4.5,7.7c1.8,3.7,3,7.4,2.7,11.8c-0.3,3.8,1.2,7.7,1.8,11.6
	c0.4,2.3,1.1,4.7,0.9,6.9c-0.1,1.4-1.5,3.5-2.7,3.9s-3.7-0.6-4.3-1.7c-1.8-3.2-3-6.8-4.5-10.2c-0.4-0.9-1.3-1.6-1.9-2.4
	c-0.6,0.9-1.3,1.7-1.7,2.6c-2.5,6.7-2.5,13.3-0.6,20.2c0.8,2.8,0.9,5.9,0.7,8.9c-0.2,3.4-2.6,5.1-6,5.6s-4.8-1.4-6.1-4.2
	c-5.2-11.4-6.2-23.1-4.3-35.5c0.9-5.6,0.1-11.5-0.3-17.2c-0.6-10.5,2.3-20.3,5.4-30c2.1-6.6,2.9-13.3,3.5-20.2
	c1.2-12.7,1.7-25.6,7.8-37.3c1.7-3.2,4-6.3,6.6-9c5-5.2,8.7-11.1,11.1-17.9c1.3-3.7,3.4-7.3,4.4-11.1c1.1-3.9,1.9-8,2-12
	c0.3-12.8,1.4-25.3,8.3-36.6c5.9-9.6,14.4-13.8,25.2-13.9c3.9,0,7.2-0.9,10.4-3.1c4.9-3.3,10.3-6,15.4-9.1c1-0.6,2.1-2.1,2.1-3.2
	c0.2-4.9,0.9-9.9-0.1-14.6c-0.9-4.5-1.1-9.7-5.2-13.1c-0.8-0.7-1.3-1.9-1.7-2.9c-1.5-4-2.9-8.1-4.4-12.2c-1.7-4.6-1.3-6.2,2.5-9.3
	c0.7-0.6,1.3-1.8,1.2-2.7c-0.3-5,1.7-9.1,4.9-12.6c7.8-8.5,16.9-15,29.2-12.2c10.1,2.3,17.9,8.3,22.8,17.6c0.6,1.1,0.8,2.4,0.9,3.6
	c0.2,3.1,0.2,6,3.5,7.9c1.1,0.7,1.5,3.6,1.3,5.4c-0.4,2.5-1.8,4.8-2.7,7.3c-0.8,2.3-1.5,4.7-2.2,7c-0.2,0.7-0.3,1.7-0.8,2
	c-4.7,3-3.8,8.7-6.2,12.8c-0.3,0.5-0.3,1.2-0.3,1.8c0,4.6,0.1,9.2,0,13.8c-0.1,1.9,0.6,2.7,2.3,3.6c5.9,3.1,11.5,6.7,17.3,9.9
	c1.9,1,4.1,2,6.2,2c15.9-0.6,26.4,7.7,31.5,21.8c3.7,10.2,4.8,20.6,4.6,31.3c-0.1,3,0.6,6.2,1.6,9c1.9,5.4,4.3,10.6,6.3,15.9
	c2.2,5.8,6.4,9.9,10.4,14.4c6.7,7.6,9.5,16.7,11.4,26.7c2.8,14.5,1.3,29.6,7.1,43.7c4.2,10.2,4.1,21.2,3.9,32.1
	c-0.1,6.8,0.3,13.7,0.8,20.5c0.7,9.9-2.4,19-6.8,27.5c-0.6,1.2-4,1.9-5.8,1.6c-3-0.5-5.1-3-5-6.2c0.2-4.2,1-8.4,1.7-12.5
	c1.1-6.3,0.1-12.4-2.3-18.2C258.1,329.5,257.7,329.3,257.2,329.2z M178,57.9c0.6-7.4-0.4-14.1-6.7-19.4c-5.7-4.7-11.7-8.7-19.3-8.8
	c-6.9,0-12.5,3.5-17.8,7.7c-6.7,5.3-9.2,12.2-8,20.4c-5.1,0.2-5.5,0.8-3.9,5.4c1.2,3.3,2.5,6.5,4,9.6c0.8,1.7,2,3.3,3,4.9
	c1.6,3.1,2.4,6.6,3.5,10c3.3,10.3,9.5,15.4,19.1,15.4c4.5,0,9.2-0.2,12.5-3.9c4.4-4.9,7.6-10.5,8.8-17c0.4-2.3,0.1-5.1,3.6-5.6
	c0.4,0,0.7-0.9,0.9-1.5c1.4-3.8,2.7-7.7,4.3-11.4C183.9,59,183.4,58.1,178,57.9z M123.4,184.9c9.1,0,16.8-3.7,24-8.5
	c1.6-1.1,2.9-3.9,2.9-5.9c0.2-9.9-0.2-19.8-0.2-29.8c0-3.4-1.8-5.5-4.4-6.2c-7.7-2.3-15.6-4.1-23.4-6c-3-0.7-5.2,0.4-6.8,3.2
	c-4.7,7.7-9.7,15.3-14.5,23c-0.8,1.4-0.9,3.2-1.1,4.9c-0.4,2.5-0.3,5.2-1.3,7.4c-1.1,2.6-0.9,4.5,0.8,6.5
	C105.8,181,113.6,185.1,123.4,184.9z M154,169.6c-0.4,5.3,0.4,6.6,7.9,9.8c0.8,0.3,1.5,0.8,2.3,1.2c14,7.7,29.2,5.3,40.1-6.4
	c1.9-2,3.2-4.1,1.3-7.2c-1.3-2.1-2.1-4.6-1-7.4c0.4-1-0.1-2.7-0.7-3.7c-5-8-10.2-15.9-15.1-23.9c-1.9-3.1-4.3-4.3-7.8-3.3
	c-5,1.4-10,2.8-15,4.2c-2.7,0.7-5.8,0.9-8.2,2.2c-5.5,2.8-3.3,8.2-3.6,12.6C153.8,154.1,154,160.6,154,169.6z M128,442.8
	c0.9-2.3,1.6-3.6,1.9-4.9c1.9-8.9,4.2-17.7,5.5-26.7c1.2-7.7,2-15.5-0.1-23.4c-6.8-25.4-13.5-50.9-20.2-76.3
	c-0.5-1.8-1.1-3.5-1.7-5.3c-0.5,0-1,0-1.5,0c-2,10.1-4.6,20.1-5.8,30.3c-1.2,9.9-0.8,19.9,2.2,29.6c2.9,9.2,5.3,18.6,7.5,28
	c2,8.2,3.2,16.5,0.8,25.1c4.7,1.1,9.1,3.3,10.2,8.3C128,432.2,127.7,437,128,442.8z M191.7,305.9c-0.4,0.1-0.8,0.2-1.2,0.3
	c-0.2,0.6-0.4,1.2-0.5,1.8c-4.6,17.5-9.2,35-13.8,52.5c-2.6,9.9-5.5,19.7-7.7,29.7c-2.6,11.9,0.5,23.6,2.7,35.2
	c1.1,5.5,2.7,10.9,4.1,16.4c0.4,0,0.7,0,1.1,0c-0.2-9.7-1.7-20,11-22.4c-0.4-2.5-1.1-4.5-1.1-6.5c-0.3-12.6,2.4-24.8,5.8-36.8
	c1.8-6.3,5-12.6,5.5-19c0.7-10,0-20.2-1.1-30.2C195.8,319.8,193.4,312.9,191.7,305.9z M113.3,279c-0.4,0.1-0.8,0.2-1.2,0.3
	c-0.3,1-0.8,2.1-0.7,3.1c0.8,5.4,1.4,10.9,2.8,16.2c3.7,14.7,7.8,29.4,11.6,44.1c3.7,14.2,7.3,28.5,11,42.7c0.5,2.1,1.2,4.1,1.8,6.2
	c0.5,0,0.9-0.1,1.4-0.1c0-2.8-0.2-5.5,0-8.3c0.7-10.2,1.3-20.4,2.3-30.6c1-9.9,2.4-19.8,3.8-29.6c0.9-6.5-2-10.9-7.2-14
	c-8.3-4.9-13.9-12.3-19.1-20C117.7,285.5,115.5,282.2,113.3,279z M164.7,391.4c0.5,0.1,0.9,0.1,1.4,0.2c1.1-4.9,2.1-9.9,3.3-14.8
	c2.7-10.5,5.5-20.9,8.3-31.3c3.4-12.8,6.9-25.5,10.1-38.3c2-7.9,3.5-16,5-24c0.2-1.3-0.4-2.8-0.8-5.2c-1.3,1.6-1.8,2.1-2.2,2.7
	c-0.7,0.9-1.3,1.8-1.9,2.7c-6.5,9.9-12.9,19.8-23.5,26c-3.5,2-6.6,5.3-6.3,9.9c0.5,7.6,1.2,15.2,2,22.7c1.4,13,3.1,25.9,4.5,38.9
	C165,384.5,164.7,388,164.7,391.4z M198.3,552.5c-0.2-4.1-0.3-8.2-0.6-12.3c-1-12.4,0.6-24.4,4.3-36.2c3.5-11.1,7.2-22.1,5.1-34
	c-0.6-3.6-0.8-7.2-1.7-10.7c-2-8.4-4.2-16.8-6.3-25.2c-0.4,0-0.8,0-1.3,0c-2.6,8.4-7.5,16.1-7.8,25.2c-0.1,5-0.1,10-0.3,15
	c-0.7,19.1-1.4,38.2-2.3,57.2c-0.2,5.2-0.9,10.3-1.3,16C191.4,546.5,194.6,549.4,198.3,552.5z M106.4,433.6
	c-0.7,0.8-1.1,1.1-1.1,1.4c-2.5,10.5-5.3,21-7.4,31.6c-2.3,11.6-0.5,23,3.3,34.2c4.8,14.2,7.4,28.7,5.1,43.8
	c-0.4,2.7-0.3,5.5-0.4,8.3c3.8-3.1,6.8-6.6,12.5-5c-0.3-3.5-0.6-6.3-0.9-9.2c-0.6-6.8-1.6-13.7-1.8-20.5c-0.6-19.2-1-38.5-1.2-57.7
	C114.3,450.8,109,442.9,106.4,433.6z M58.3,209.7c-1.7,1.9-3.2,3.3-4.5,4.9c-9,10.5-13.5,22.3-9.7,36.3c2.5,9,2.1,18-0.1,27
	c-1.3,5.4-2.4,11-3.5,16.4c-0.5,2.3-0.2,4.2,2.6,4.9c3,0.7,3.1-1.6,3.9-3.3c3.7-8.7,7-17.6,11.4-25.8c3.7-7,7.6-13.6,8.4-21.7
	c0.4-3.5,2.2-6.7,3.3-10.1c1.1-3.4,2-6.8,3.2-11C60.7,232.4,56.8,227.6,58.3,209.7z M258.2,299.1c5.4,0.2,6.3-0.8,5.4-5.5
	c-0.6-3.1-1.2-6.1-2-9.1c-2.6-10.9-4.6-21.6-1.7-32.9c1.6-6.2,2.6-12.7,0.5-19.2c-2.7-8.5-7.5-15.6-13.8-21.8c-0.2-0.2-0.6,0-1,0
	c2.3,8.3,1.7,12.8-1.6,16.3c-3.9,4.1-8,2.7-12.8,1c0.8,3.8,2,7.4,3.1,11s2.2,7.3,3.3,11c1.4,4.5,2,9.4,4.3,13.3
	C248.8,274.4,255.1,285.9,258.2,299.1z M208.5,161.2c-0.4,1.6-0.6,1.9-0.6,2.3c0.8,13,2.4,25.7,7.6,37.8c3.4,7.9,6.6,15.9,13.8,21.2
	c3.4,2.5,7.2,5.7,11.5,3.4c4.5-2.4,4.2-7.6,3.3-11.8c-1.9-7.9-4-15.9-6.8-23.5c-2.2-6-5.8-11.4-12.3-13.7c-4.1-1.5-7-4-9.6-7.3
	C213.3,166.9,211.2,164.4,208.5,161.2z M161.2,297.9c0.5,1.4,0.6,3.2,1.4,3.6c1,0.4,2.6-0.2,3.8-0.7c1.5-0.7,3-1.7,4.3-2.8
	c9.7-7.6,15.9-18,22.7-27.9c2.9-4.2,3.8-8.5,2.7-13.4c-1.1-5.4-1.9-10.8-2.7-16.2c-0.6-3.8-1.4-4.2-4.3-1.8
	c-3.3,2.7-6.7,4.9-11.2,3.5c-3.4-1-4.5,0.7-4.4,3.5c0.5,11.8-4,22.4-7.1,33.4C164.6,285.3,162.9,291.5,161.2,297.9z M95.3,162
	c-1.6,1.9-3.3,3.9-4.9,5.8c-3.1,3.9-6.5,7.2-11.3,9.3c-3.5,1.6-6.8,4.7-8.9,8c-2.9,4.4-4.9,9.5-6.6,14.5c-2.3,6.5-4.2,13.1-3.4,20.1
	c0.6,5.8,4.4,8.3,9.6,5.8c3-1.4,5.8-3.4,8.2-5.7c6.1-5.7,8.6-13.5,11.8-20.9C94.6,187.3,95.5,175,95.3,162z M142.7,297.5
	c-0.2-1-0.4-2.8-0.8-4.4c-3.8-16.3-11.4-31.7-11.5-48.9c0-0.8-1.9-2.4-2.5-2.2c-5.4,1.7-9.4-0.4-13.2-3.8c-2.2-2-3.4-1.1-3.9,1.8
	c-0.6,4.1-1.7,8.1-2.3,12.1c-1.1,7.1-1.5,14,3.7,20.1c4.3,5.1,7.4,11.2,11.9,16.2c4.1,4.7,9.1,8.7,14.1,12.5
	C141,303.1,142.8,301.8,142.7,297.5z M115,127.5c-8.2-5.2-25.3-3.9-33.1,6.7c-8.5,11.6-10.5,25-9.4,39.1c0.3,3.5,2.5,3.6,4.7,2.6
	c3-1.4,6.2-3,8.2-5.4c5.9-7.3,11.5-14.8,16.8-22.6C106.8,141.3,110.8,134.3,115,127.5z M200.8,124.6c-1.4,0-2.7-0.1-4.1,0
	c-1,0.1-1.9,0.4-2.9,0.6c-3.8,0.9-4.5,2.3-2.4,5.5c7,11,14,22,21.5,32.7c2.9,4.1,6.7,8.1,11,10.7c6.6,4.1,9.4,2.4,8.6-5.3
	c-0.9-8.6-2.2-17.4-5-25.5C223.1,130.6,213.5,124.5,200.8,124.6z M140.5,241.7c0-0.2-0.1-0.4-0.1-0.6c1.9,0.3,3.8,0.4,5.6,0.8
	c2.9,0.7,4.3-0.2,4.3-3.2c0.1-4.9,0.2-9.7,0.2-14.6c0-1-0.6-2.3-1.3-2.8c-5.3-3.8-13.9-2.7-18.1,2.1c-0.7,0.8-1.2,2-1.1,3
	c0.3,4.2,0.9,8.4,1.5,12.6c1.8,0.2,3.4,0.5,5.1,0.7c0,0.2,0,0.5,0,0.7c-1.2,0.5-2.4,1-4.5,1.8c1.4,7.7,2.4,15.6,4.3,23.3
	c2.7,10.9,5.9,21.6,9,32.4c0.3,0.9,1.5,2.4,2,2.3c1-0.2,2.3-1.2,2.5-2.2c0.5-2,0.7-4.2,0.7-6.3c-0.5-14.7-1-29.4-1.7-44.1
	c-0.1-1.1-0.9-2.7-1.9-3.2C145,243.2,142.7,242.6,140.5,241.7z M163.9,241c0,0.3,0.1,0.7,0.1,1c-0.6,0.1-1.3,0-1.7,0.3
	c-2.4,1.7-6.7,0.9-7,5.4c-0.6,9.2-1.4,18.4-1.7,27.6c-0.2,7.2,0.2,14.5,0.6,21.7c0.1,1.2,1.7,2.3,2.7,3.4c0.8-0.9,2-1.8,2.3-2.8
	c1.1-3.7,1.8-7.5,2.8-11.2c3.5-12.6,8.1-24.8,9.1-38c0.2-3.2,1.6-6.9-3.1-8.7c1.5-0.2,3.1-0.4,4.6-0.6c0.6-4,1.5-7.9,1.6-11.9
	c0.1-1.6-0.9-3.8-2.2-4.8c-4.9-3.8-10.3-5-15.9-1.6c-1.1,0.7-2.3,2.3-2.4,3.5c-0.2,4.9,0.1,9.7,0.2,14.6c0,2.7,1.3,3.5,3.9,3
	C159.9,241.6,161.9,241.3,163.9,241z M107.2,422.3c5.2-0.4,8.6-3.8,8.2-8.6c-0.7-8.4-1.4-16.9-3.2-25.1c-3.1-13.8-7-27.4-10.8-41.1
	c-1-3.6-2.4-7.2-6-9.9c-0.4,1.8-0.8,3-0.9,4.2c-0.6,8.9-1.4,17.9-1.5,26.8c-0.1,9.8,2.8,19.1,6.3,28.3
	C102.6,405.2,109.2,412.4,107.2,422.3z M196.5,422.6c0.2-0.9,0.4-1.5,0.4-2c-0.3-4.9,1.3-9.2,3.2-13.6c3.6-8.5,7.2-17.2,9.5-26.2
	c2.9-11.2,1.6-22.8,0.8-34.3c-0.2-2.9-0.9-5.7-1.5-9c-3.7,3.3-4.3,4.9-7,14.7c-3.3,12-7.3,23.8-10.1,36c-1.9,8.2-2.5,16.7-3.1,25.2
	C188.5,418.1,191.6,421.3,196.5,422.6z M55.1,341.6c0.6-0.2,1.1-0.3,1.7-0.5c1.4-2.4,1.1-4.9,0.2-7.6c-1.1-3.2-3-6.6-2.5-9.6
	c1.2-8-2.4-14-6.3-20.1c-2.7-4.3-11.3-5.7-14-1.9c-1.9,2.6-2.8,6.4-3,9.7c-0.5,7.3,0.3,14.7-0.5,22c-1.1,9.8,1,18.8,4.7,27.6
	c0.5,1.3,2.7,3.1,3.4,2.9c1.4-0.6,3.1-2.3,3.3-3.7c0.4-2.4-0.1-5-0.5-7.4c-1.3-6.8-1.9-13.6,0.2-20.4c0.8-2.6,0.9-6.4,4.7-6.3
	c3.6,0.1,3.8,3.7,4.8,6.3C52.4,335.7,53.8,338.6,55.1,341.6z M105.8,183.8c-0.2,2.4-0.6,4.9-0.5,7.3c0.5,7.6,1.2,15.1,1.8,22.7
	c0.6,7.9,3.5,15,8.6,21c2.1,2.5,4.7,5.6,8.5,4.1c3.8-1.5,3.5-5.4,3.2-8.8c-0.4-5.2-1.6-10.4-1.5-15.6c0.3-8.5-1.2-17.2,2.3-25.4
	c0.3-0.6,0.2-1.4,0.2-1.2C120.9,186.6,113.7,185.3,105.8,183.8z M198.4,183.8c-8,1.4-15.2,2.8-22.7,4.1c0-0.3-0.2,0.3,0,0.7
	c2.8,5.3,2.7,10.9,2.3,16.7c-0.5,6.7-0.4,13.4-0.7,20.1c-0.1,2.7-0.6,5.5-0.2,8.2c0.3,1.9,1.4,4.4,2.9,5.1c1.4,0.7,4.2-0.2,5.7-1.3
	c5.3-3.9,8.8-9.5,9.8-15.8c1.8-10.5,2.5-21.2,3.5-31.9C199.2,187.8,198.6,185.7,198.4,183.8z M248.3,342.1c1.2-1.8,2.3-2.9,2.9-4.3
	c1.2-3,1.9-6.2,3.4-9c1.9-3.7,4.6-3.5,6.7,0.1c0.5,1,1,2,1.3,3.1c1.8,6.8,1.5,13.6,0.4,20.4c-0.4,2.7-0.8,5.5-0.5,8.2
	c0.2,1.4,1.7,3,3,3.6c0.7,0.3,2.9-1.3,3.3-2.4c2.9-6.9,5.3-14,5.1-21.6c-0.3-10.3-0.6-20.7-0.9-31c-0.1-4.1-1.5-8.1-5.5-8.8
	c-3.1-0.6-8,0.2-9.9,2.4c-4.5,5-8.2,10.9-7.8,18.4c0.2,3-0.7,6-1.2,9C247.9,333.6,245.2,337.1,248.3,342.1z M131.6,442.7
	c-5.7,5.5-9.3,14.4-9.4,21.8c-0.1,6.9-0.2,13.7-0.3,20.6c-0.1,12.2-0.3,24.4-0.3,36.6c0,2.2,0.6,4.5,0.9,6.7
	c2.1-7.9,3.6-15.7,6.3-23.1c6.5-18,7.3-36.3,4.6-54.9C132.9,448.1,132.2,445.7,131.6,442.7z M177.5,568.8
	c-0.2,6.9,4.2,10.6,9.2,13.6c1.3,0.8,3.5,0.2,5.3,0.2c1.2,0,2.8-0.8,3.5-0.2c5.2,3.9,11.1,1.1,16.6,1.7c1,0.1,2.1-1,3.2-1.5
	c-0.6-1-1-2.2-1.8-3c-1.1-1.1-2.8-1.7-3.9-2.8c-3.4-3.8-8.2-7.3-9.6-11.8c-1.1-3.7-2.6-7.1-4.4-10.3c-1.8-3.1-4.6-5.1-8.4-4.5
	c-3.6,0.5-6.1,2.8-7,6.4C179,560.5,178.3,564.7,177.5,568.8z M126.5,568.8c-0.6-3.7-0.8-7.4-1.7-11c-0.9-3.8-3.2-6.9-7.3-7.7
	c-3.7-0.7-6.6,1.2-8.5,4.3c-1.9,3.2-5.1,5.9-4.1,10.3c0.2,0.8-0.7,2-1.3,2.9c-3.4,4.7-7.3,8.8-12.3,11.7c-0.9,0.5-1.7,1.9-1.9,3
	c-0.1,0.5,1.6,1.8,2.4,1.7c5.6-0.4,11.5,2.2,16.9-1.5c0.8-0.6,2.3,0,3.5,0c2.2-0.1,4.9,0.5,6.5-0.6
	C123.2,578.8,127.3,575.2,126.5,568.8z M173.6,443.2c-0.6,0.1-1.2,0.1-1.9,0.2c-0.7,9.7-1.7,19.3-2.2,29c-0.4,9.6,1.9,18.8,4.5,28
	c2.2,8,4.3,16.1,6.4,24.1c0.3,1.3,0.4,2.7,0.6,4c0.3,0,0.6,0,1,0c0.3-2.7,0.9-5.4,0.8-8c-0.1-18.6-0.3-37.2-0.5-55.8
	c0-2.2-0.4-4.5-1-6.7C180,452.5,177.2,447.6,173.6,443.2z M180.1,550.2c0.7,0.2,1.3,0.4,2,0.6c0.7-1.4,1.8-2.8,1.9-4.3
	c0.9-7.7,1.8-15.4,2.1-23.1c0.8-21.2,1.2-42.4,2-63.7c0.1-3.3,0.8-6.6,1.8-9.8c1.8-5.8,4.2-11.4,6-17.2c1.6-4.8-0.2-8.4-4.6-9.9
	c-4.7-1.6-9.9,0.5-11.7,4.7s-0.8,8.2,0.6,12c3.5,9.4,4.5,19,4.3,28.9c-0.1,6.2,0.3,12.5,0.3,18.7c0,11.5,0,23-0.1,34.5
	c0,2.1-0.7,4.2-1.1,6.2C182.5,535.3,181.3,542.7,180.1,550.2z M122,550.6c0.5-0.2,1-0.3,1.4-0.5c-0.3-4.3-0.4-8.6-1-12.9
	c-0.7-5-2.6-10-2.6-15c-0.3-21.2-0.3-42.4,0.1-63.7c0.1-5.4,2-10.7,3-16c0.8-4.2,2.3-8.5,2.2-12.7c0-5.3-5.5-8.3-11.3-7.2
	c-4.8,0.9-7.1,4.6-5.7,9.9c0.9,3.5,2.4,6.8,3.7,10.2c2.5,6.7,4.9,13.2,4.7,20.6c-0.3,12.4-0.3,24.7,0.3,37.1
	c0.7,15.3,2.1,30.6,3.3,45.9C120.2,547.7,121.3,549.1,122,550.6z M197.5,270.9c-0.6,1.2-1.3,2.4-1.6,3.7c-0.8,3.4-1.6,6.8-2,10.2
	c-0.9,7.6-2.3,15.1,0.6,22.8c4.1,10.7,7.4,21.7,6.6,33.4c0,0.5,0.4,1,0.9,2.4c1.3-1.9,2.7-3.2,3.1-4.7c1-4.2,1.9-8.5,2.3-12.8
	C209.3,306.9,201,289.5,197.5,270.9z M101.5,342.8c0.4-0.2,0.8-0.3,1.1-0.5c0.1-0.7,0.3-1.4,0.3-2.1c0-9.1,1.8-17.7,4.7-26.4
	c2.1-6.3,3.8-13.1,3.8-19.6c0-7-2.2-14-3.5-20.9c-0.2-1-0.8-1.8-1.3-2.8c-2.5,10-5,19.6-7.3,29.2c-2.9,12.3-3.7,24.7-1,37.1
	C98.8,338.9,100.4,340.8,101.5,342.8z M149.9,204.3c0.1,0,0.1,0,0.2,0c0.1-1.5,0.6-3,0.3-4.5c-0.2-1.1-1-2.7-2-3.1
	c-3.6-1.3-17.2,2.2-18.4,7.3c-1,4-1.5,8.2-1.6,12.4c-0.1,4.5,1.2,5.1,5.2,2.8c4.2-2.4,8.5-2.6,12.9-1.2c3.4,1.1,4.1,0.8,4.1-3
	C150.6,211.5,150.2,207.9,149.9,204.3z M176.1,212c-0.2-3.3,0-7.7-3.9-10.6c-4.5-3.4-9.7-5-15.4-4.8c-1,0-2.8,1.4-2.8,2.2
	c-0.3,5.8-0.3,11.7-0.3,17.5c0,2.1,0.9,3.1,3.4,2.1c3.8-1.7,7.7-1.9,11.5,0c6.8,3.3,7.3,3.1,7.4-4.7
	C176.1,213.5,176.1,213.2,176.1,212z M133.5,94.6c-0.5,0.1-1,0.3-1.5,0.4c1,6.1,1.5,12.3,3,18.2c1.5,5.6,4,11,6.3,16.3
	c0.5,1.2,2.2,2.4,3.6,2.7c1.9,0.4,3.7-0.3,4-2.7c0.3-2.1,0.7-4.2,0.9-6.3c0.4-4.6,0.6-9.2,1.1-13.7c0.3-2.6-0.5-3.9-3.2-4.2
	c-5.6-0.6-9.6-3.6-12.4-8.4C134.8,96,134.1,95.4,133.5,94.6z M170.8,94.7c-3.6,5.9-8,10.2-15.2,10.8c-2.8,0.2-2.7,2.4-2.3,4.5
	c0.4,2.7,0.9,5.4,1.2,8c0.4,3.8,0.3,7.8,1,11.5c0.2,1.1,2.1,2.5,3.3,2.5c1.3,0,3.3-1,3.9-2.2c1.8-3.4,3-7.1,4.6-10.6
	C170.8,111.6,171.9,103.4,170.8,94.7z M150.7,186.2c0-0.7,0-1.5,0-2.2c0-5-1.8-6.3-6.1-3.7c-4.4,2.7-8.7,5.7-12.7,9.1
	c-1.8,1.6-2.8,4.3-3.7,6.7c-0.4,1,0.3,2.5,0.5,3.8c1.1-0.3,2.3-0.4,3.4-0.8c3.9-1.4,7.7-3.4,11.7-4.2c6.6-1.3,6.7-1,6.8-7.8
	C150.7,186.7,150.7,186.4,150.7,186.2z M153.3,185.7c0.2,2,0.1,4,0.7,5.9c0.3,1,1.6,2.3,2.6,2.4c5.9,0.6,11.5,1.7,16.4,5.3
	c2.1,1.5,3.6,0.4,3.2-2.3c-0.3-1.8-0.9-3.6-1.8-5.2c-3.1-5.1-8.1-7.9-13.1-10.7C154.7,177.4,153.4,178.2,153.3,185.7z M111.7,122.2
	c0.2,0.3,0.4,0.6,0.6,0.9c8.7,2.3,17.4,4.5,26.9,7c-2.8-6.7-5.3-12.5-8-18.9C124.4,115.1,118.1,118.7,111.7,122.2z M173.1,111.3
	c-2.8,6.7-5.2,12.4-7.9,18.9c9.7-2.6,18.4-4.8,27-7.1c0.1-0.3,0.3-0.6,0.4-0.9C186.2,118.6,179.8,115,173.1,111.3z M263.7,250.4
	c-0.4,0-0.8,0.1-1.2,0.1c-0.5,3.4-1.8,7-1.4,10.3c1.5,11.7,3.4,23.3,5.4,34.9c0.4,2.2,2.3,3.7,5.7,3.1c-0.8-3.9-1.3-7.7-2.3-11.4
	c-2.5-8.7-5.4-17.3-4.8-26.7C265.4,257.4,264.2,253.9,263.7,250.4z M31.8,299.3c3.9-0.6,5.9-1.7,6.4-4.8c1-5.8,1.9-11.5,3.3-17.2
	c2-8,2.4-16,0.8-24.1c-0.2-1-0.7-1.9-1-2.9c-0.5,0-1,0-1.5,0C41.7,267.2,35.1,282.6,31.8,299.3z M206.2,175.3
	c-5,4.3-7.3,22.7-4,30.2C205.4,195.4,208.9,186.1,206.2,175.3z M98.8,174.9c-3.1,6.9-0.3,25.5,4.7,30.5
	C102.3,194.9,105.8,184.6,98.8,174.9z"/>
<path d="M544.6,338.4c-1.2,2.4-2.5,4.7-3.7,7.1c-1.4,2.7-3.6,4-6.4,3.2c-2.7-0.8-3.6-3.2-3.5-5.9c0-0.9-0.1-1.8,0.1-2.6
	c1.3-7.2,2.6-14.4,4.2-21.5c0.5-2.4,1.6-4.8,3.2-6.7c3.9-4.6,4.1-9.4,1.7-14.5c-3.3-7.2-7.2-14.2-10.1-21.5
	c-3.6-9-6.2-18.3-9.5-27.5c-3.1-8.7-5-17.6-10.8-25.5c-5.7-7.6-9.3-16.8-13.9-25.4c-0.4-0.7-0.7-1.4-1.4-2.9
	c-1.4,4.7-2.5,8.6-3.7,12.4c-1.8,5.6-3,11.4-5.5,16.6c-2.8,5.9-2.8,11.8-2.1,17.9c1.3,10.9,2.6,21.8,4.6,32.6
	c1.2,6.2,3.8,12,5.6,18.1c0.6,2.1,0.9,4.4,1.1,6.6c1.1,12.3,1.8,24.7,3.4,36.9c3,23.1,1.5,45.7-7.9,67.1c-3,6.8-3.4,13.1-3.3,20.2
	c0.1,11.5,3.6,22,6.4,32.8c4,15.2,4.6,30-2.4,44.8c-5,10.7-5.7,22.7-5.6,34.5c0.1,8.2,0.9,16.4,1.6,24.6c0.7,7.6,4.4,12.7,12.1,14.7
	c2.6,0.7,4.8,2.3,4.4,5.6c-0.3,2.9-2.4,4-5,4.1c-3.1,0.2-6.2,0.1-9.3,0.1c-4.5,0-9-0.5-13.4,0.2c-11.9,2.1-19.1-5.1-16.3-16.7
	c0.8-3.3,1.4-6.7,1.4-10c0-12.2,0.4-24.5-0.6-36.7c-0.5-6-3.5-11.8-5.6-17.6c-4.1-11.2-5.6-22.8-4.3-34.6c0.8-7,2.7-13.9,4.4-20.8
	c1.1-4.4,0.1-8.4-2.1-12.2c-4.6-8.3-6.3-17.4-6.8-26.6c-0.8-14.1-0.9-28.2-1-42.3c-0.1-6.8-1.4-13.3-3.5-19.8
	c-1.7-5.2-2.6-10.6-3.6-14.8c-5.5,16.7-8,34.8-7.6,53.7c0.3,12.4-1.4,24.9-2.9,37.2c-0.6,4.7-2.9,9.2-5.1,13.5
	c-2.1,4.2-2.4,8.5-1,12.7c4.1,12.3,5.7,24.9,3.3,37.6c-1.6,8.6-4.9,16.9-7.4,25.3c-0.9,2.9-2,5.9-2.1,8.9
	c-0.4,12.4-0.5,24.7-0.5,37.1c0,3.6,0.3,7.3,1.5,10.7c2.7,7.9-4.2,17.6-14.7,15.4c-5.8-1.2-11.4-0.8-17.1-0.2
	c-2.6,0.3-5.4,0.3-7.8-0.5c-1.8-0.6-4.4-2.7-4.3-4.1c0.1-1.8,2-4.8,3.7-5.2c9.3-2.4,12.6-8.8,12.9-17.7c0.3-8.8,1.5-17.7,1.2-26.5
	c-0.5-11.7-1.8-23.2-7-34.2c-2.5-5.2-3.1-11.5-3.5-17.4c-1-13.7,3.3-26.6,7.3-39.4c0.8-2.6,1-5.3,1.3-8c0.3-2.6,0.1-5.3,0.4-7.9
	c1.1-8.1-0.6-15.4-4-23c-3.6-8.2-5-17.4-7.1-26.2c-2.9-12.8-1.2-25.6,0.2-38.4c1.2-10.4,2.4-20.8,3-31.3c0.4-7.5,1.2-14.8,4.5-21.7
	c3.7-7.7,3-16.3,4.3-24.6c0.9-5.9,1.8-11.8,2.8-17.7c0.8-4.9,0.8-9.4-1.1-14.2c-4-10.3-7.1-20.9-10.4-30.7c-3.8,7.2-8,15.1-12.2,23
	c-0.7,1.3-1.4,2.7-2.4,3.8c-7.7,8.2-9.6,19-12.4,29.2c-3.5,12.7-8.4,24.6-14.3,36.3c-2.2,4.4-4,9.1-5.9,13.7
	c-1.5,3.7,0.5,6.6,2.6,9.3c3.2,4.1,4.6,8.6,4.7,13.8c0,3.4,1.3,6.7,1.9,10.1c0.5,3.1,1.2,6.2,1.1,9.2c-0.1,1.5-1.4,3.9-2.7,4.3
	c-1.5,0.5-3.8-0.3-5.4-1.3c-1.2-0.8-1.8-2.5-2.6-3.9c-0.9-1.7-1.7-3.4-3-5.1c-0.2,7.7-3.5,15-1.2,23c0.8,2.9-0.7,7.1-2.4,10
	c-2.2,3.8-5.6,3.6-8.6,0.1c-4.6-5.5-5.8-12.1-5.7-18.9c0.1-10.4,0.5-20.7,0.6-31.1c0-2.4-0.1-4.8-0.7-7c-1.5-5.1,0.8-9.7,2.2-14.2
	c3.4-11.9,5.6-23.9,6.3-36.3c0.7-12.9,1.4-26.1,7.6-37.8c3.1-5.9,7.7-10.9,11.6-16.4c1.2-1.7,2.4-3.5,3.1-5.4
	c2.7-7.5,5-15.1,7.8-22.5c1.3-3.3,1.9-6.3,1.3-9.7c-2.3-13.9,1.8-25.9,11.1-36.2c4.3-4.7,9.1-8.8,16.1-9c0.7,0,1.5-0.3,2-0.8
	c6.2-6.4,14.6-8.2,22.6-11c0.9-0.3,2-0.5,2.8-1c6.9-3.8,7.6-1.1,7.9-10.6c0.1-4.5,0.4-9,1.1-13.4c1.1-7.6-0.5-14.3-5.3-20.6
	c-1.9-2.5-2.6-6.2-3.3-9.4c-0.3-1.5,0-4.1,1-4.7c2.7-1.7,1.8-4.2,2.5-6.3c1.4-3.9,2.7-8.1,5.2-11.2c6.9-8.8,18.4-14.2,29-10.5
	c9.3,3.3,16.5,9.1,20,18.7c0.5,1.3,0.5,2.7,0.6,4c0.2,1.9,1.1,3.3,1.9,5c1.3,2.7,1.2,6.8,0.3,9.9c-1,3.4-3.6,6.4-5.5,9.6
	c-0.6,1-1.3,2.3-1.3,3.4c0.1,10.2,0.3,20.4,0.8,30.7c0.1,1.2,1.6,2.9,2.9,3.4c6.4,2.7,13,5,19.5,7.5c0.1,0,0.3,0,0.4,0.1
	c8.7,7.4,21.5,7.9,29.1,17.4c7.5,9.4,11.7,19.8,10.3,31.8c-0.7,5.9,0.1,11.2,2.4,16.6c2.5,5.8,4.1,12,6.5,17.9
	c1.2,2.9,2.6,5.9,4.7,8.2c8.6,9.1,13.7,19.9,15.4,32.1c1.5,10.9,1.6,21.9,3.3,32.8c1.4,9.4,4.2,18.7,6.3,28c0.5,2.2,1.1,4.4,1.1,6.6
	c0,14.6-0.2,29.2-0.2,43.8c0,5.9-1.9,11.3-5.1,16.2c-2.8,4.4-7.3,4.3-10.1-0.2c-2.1-3.4-2.2-7-1.7-10.8c0.4-3.1,0.5-6.4,0.4-9.5
	c-0.2-3.8-0.8-7.6-1.2-11.4C545.1,338.5,544.9,338.5,544.6,338.4z M453.3,68c-1.4,1.2-2.7,2.4-3.9,3.5c0.6,1.6,1.3,3.1,1.8,4.6
	c2.9,8.7,1.4,17.6,1,26.4c-0.2,3.3,0.5,5.2,4.2,6c0.3-1,0.9-2,0.9-3.1c0.1-5.5,0.5-11-0.2-16.4c-0.7-4.7-0.5-9.1,0.8-13.6
	C459.3,70.2,458.3,69,453.3,68c0.2-0.3,0.4-1,0.8-1.1c3.9-1,4.8,2.7,6.8,4.6c3.7-4.3,5.4-10,4.5-14.7c-0.9,0-1.9,0.1-2.8,0.1
	c-0.3-11.4-1.2-14.6-6.4-19.6c-5.2-5.1-11.2-8.8-18.8-8.7c-7.4,0-13.4,3.6-18.5,8.6c-5.5,5.3-8,11.9-5.7,19.9
	c-1.6-0.1-2.6-0.2-3.6-0.2c-0.8,5.3,1.4,11.7,4.9,14.5c3.1-4.6,3.9-6.2,10-2.8c1.7,0.9,3.8,1.1,5.7,1.5
	C438.1,71.4,445.8,70.9,453.3,68z M380.3,132c2.6,1.1,5.1,2.6,7.8,3.3c5.6,1.3,7.9,5,8.8,10.2c1.2,6.6,2.5,13.2,6.6,18.8
	c3.3,4.5,6.3,9.3,9.9,13.5c5.6,6.6,11.6,13,17.6,19.3c0.9,1,2.9,1.1,4.3,1.6c0.3-1.4,1-2.7,1-4.1c0.1-23.1,0-46.2,0.1-69.3
	c0-2.7-0.9-4.1-3.5-4.8c-7.6-2.1-15.3-1.2-22.6,0.4c-9.2,2-18,5.5-26.9,8.5c-1.2,0.4-2,1.8-2.9,2.8c-2.8-1.7-5.4-2-8.2,0.1
	c-14,10-19.5,24.1-17.1,40.7c0.1,0.6,0.6,1.2,1.1,2.2c5.8-8.3,13.6-13.2,22.3-17c1.2-0.5,2-1.8,2.9-2.8c3.3-3.7,6.3-7.6,9.8-11.1
	c2.3-2.3,1.7-4-0.5-5.4c-1.3-0.9-3.1-1-4.4-1.9C384.2,135.5,382.3,133.7,380.3,132z M392.9,321.9c1.6-0.7,3.5-2,5.6-2.4
	c7.8-1.8,15.5-3.6,23.4-4.8c4.6-0.7,8.2-2.9,10.5-6.3c5.9-9,5.7-19.3,2.8-28.8c-2.2-7.2-7.5-13.4-11.1-20.2
	c-3.8-7.1-10.1-8.7-17.1-7.8c-6.7,0.9-11.8,5.2-13.9,11.5c-2.3,6.9-3.5,14.1-5.2,21.2c-0.2,0.7-0.5,1.4-0.8,2.1c-2,4.1-2,8-0.4,12.5
	C389.3,306.3,390.8,314.2,392.9,321.9z M483.1,322.6c0.3-2.3,0.3-3.7,0.6-5c1.8-6.9,3.3-13.8,5.5-20.5c0.9-2.6,1.1-4.5,0.2-7.1
	c-2.1-6.1-4.9-12.2-5.5-18.4c-0.6-7.2-3-12.6-8.5-17c-7.1-5.7-18.9-4-23.6,3.7c-3.3,5.4-5.7,11.4-9.2,16.6
	c-6.7,10.1-5.1,20.4-1.5,30.7c1.5,4.3,5.2,7.6,9.8,8.5C461.7,316.1,472.9,316.1,483.1,322.6z M494.7,132.1c0-0.4-0.1-0.8-0.1-1.3
	c-0.9-0.5-1.8-1.2-2.8-1.5c-9-2.9-17.8-6.6-27-8.3c-7.2-1.4-14.8-0.6-22.3-0.4c-3,0.1-4.2,2.1-3.9,5.2c0.5,4.8,1.1,9.7,1,14.6
	c-0.2,18.1-0.7,36.2-1,54.3c0,1.3,0.7,2.7,1.1,4c1.3-0.4,3.1-0.4,4-1.3c4.8-4.7,9.7-9.3,13.9-14.4c9.8-11.9,20-23.7,21.3-40.2
	c0.2-3,2.4-5.5,6-6.5C488.2,135.3,491.4,133.5,494.7,132.1z M472.5,248.5c1.3-4,2.5-8.8,4.4-13.2c7.2-16.2,12.9-32.9,14.8-50.6
	c0.3-2.3,0.2-4.7,0-7.1c-0.3-2.3-1.5-3.2-3.9-2c-5.5,2.9-11.2,2.5-16.6,0.1c-2.5-1.1-3.5-0.2-5,1.4c-7,7.4-13.9,14.8-21.3,21.9
	c-2.1,2-2.8,3.4-1.8,6c4.1,10,6.6,20.3,8.3,30.9c0.8,4.8,2.4,9.5,3.5,13.5C461.2,249.1,466.5,248.8,472.5,248.5z M383.1,182.3
	c-0.1,0-0.2,0-0.3,0.1c1.1,5.9,1.5,12,3.3,17.6c5,15.8,10.6,31.5,16.1,47.2c0.3,0.8,1.7,1.6,2.7,1.7c4.3,0.4,8.6,0.7,12.9,0.7
	c0.9,0,2.4-0.7,2.7-1.5c1-2.5,2-5.2,2.4-7.8c1.8-12.1,4.6-24,9.1-35.3c1-2.5,0.6-4-1.5-5.7c-7.9-6.8-16-13.5-21.8-22.3
	c-1.3-2-2.5-2-4.6-1.2c-5.1,2.1-10.4,2.6-15.7,0.5c-4.3-1.7-5.1-1.2-5.3,3.5C383,180.6,383.1,181.4,383.1,182.3z M493.3,475.7
	c-0.2-10.4-3-20.1-6.6-29.5c-4-10.7-10-20.6-11.6-32.2c-0.1-0.8-0.6-1.7-1.2-2.2c-1.2-1-9.7,2-10.1,3.5c-0.5,1.7-0.6,3.4-1.1,5.1
	c-1,3.7-2.2,7.4-3.2,11.1c-0.7,2.7-1.4,5.4-1.8,8.1c-0.5,4.5-0.5,9.1-1.1,13.7c-0.9,7.5-2.6,15-3.1,22.6c-0.5,7.5,1.5,14.6,6.3,20.6
	c2.5,3.2,4.7,3.5,7.5,0.7c2.7-2.7,4.8-6,7.1-9.1c1-1.4,2-2.8,3.1-4.2c0.7,1.7,1.6,3.3,2.1,5c0.8,3.4,3,4.7,6.2,4.7s4.9-1.9,5.4-4.7
	C492.1,484.6,492.6,480.1,493.3,475.7z M382.1,475.6c0.5,4.2,0.7,8.5,1.5,12.6c0.8,4.3,3.2,5.8,7.2,5.3c3.6-0.4,4.5-2.9,5.1-5.9
	c0.3-1.3,1.3-2.4,1.9-3.6c0.8,1,1.7,2,2.5,3c2.4,3.3,4.3,6.9,7.1,9.9c3.1,3.3,5.7,2.9,8.3-0.8c3.9-5.4,6.1-11.6,5.7-18.2
	c-0.5-8.2-2.2-16.3-3.1-24.5c-0.5-4.8-0.6-9.6-0.8-14.4c-0.1-1.4,0.5-3.1-0.1-4c-3.5-5.4-4.4-11.6-5.8-17.6
	c-0.5-2.4-0.7-5.4-4.6-3.5c-0.4,0.2-1.3-0.4-1.9-0.9c-3.1-2.4-4.3-2.1-5.2,1.8c-2,8.7-5,16.9-8.8,24.9
	C385.8,450.9,382.3,462.8,382.1,475.6z M456.9,432.9c1.3-4.7,2.6-8.7,3.5-12.7c2.3-10.3,4.2-20.7,6.6-31c1.3-5.5,1.3-10.8,0-16.3
	c-1.5-6.6-2.9-13.2-3.4-19.9c-0.8-9.8-1-19.7-1.3-29.5c-0.1-3.5-1.4-5.3-5-5.5c-4.1-0.2-8.1-0.8-11.5-3.6c-2.5-2.1-4.9-0.8-4.7,2.7
	c0.4,7.9,0.4,16,2.2,23.7c2.3,10.2,5.6,20,5.2,30.7c-0.6,16.1-0.1,32.2,2.5,48.1C451.7,424.1,452,428.9,456.9,432.9z M418,432.2
	c0.5,0,1,0,1.5,0c0.8-1.2,2.1-2.2,2.4-3.5c1.3-5.6,3-11.1,3.4-16.8c0.9-13.3,1.5-26.7,1.5-40c0-9.7,2.2-18.9,4.4-28.2
	c2.1-8.5,2.4-17.4,3-26.2c0.3-4-2-4.7-5.3-3c-3.1,1.6-6.5,2.9-9.9,3.5c-5.5,0.9-5.7,0.8-5.7,6.5c0,15.9-1.2,31.6-4.8,47.2
	c-1.1,4.6-1.4,9.7-0.6,14.3c1.9,11.5,4.5,22.9,7,34.4C415.6,424.3,416.9,428.2,418,432.2z M500.9,579.6c-2.6-1.3-4.4-2.2-6.3-3.1
	c-4.5-2.3-8.9-4.6-9.6-10.4c-1.1-9.3-3.1-18.5-3.4-27.8c-0.3-14.1,1.3-28.1,6.2-41.8c-3.4-0.1-7,0.5-9.3-3.2c-1.8-3-2.9-2.9-5.1,0.1
	c-1.8,2.3-3.6,4.8-5.7,6.9c-2.4,2.4-5.5,2.3-8-0.1c-1.1-1.1-1.8-2.6-2.7-3.9c-0.5,0.4-1,0.8-1.5,1.2c1.2,3.1,2.5,6.1,3.6,9.2
	c1.5,3.9,4.2,7.9,4.2,11.9c0,17.4,1.8,34.9-1.1,52.3c-1.2,7.3,4.2,12,11.6,10.8c4-0.6,8.1-0.6,12.1-0.6
	C490.7,581,495.4,582.6,500.9,579.6z M375,579.2c0,0.5,0,1,0.1,1.5c2.8,0.3,5.7,0.9,8.4,0.7c6.3-0.5,12.5-1.7,18.9,0.2
	c1.8,0.5,4.4-0.4,6.3-1.5c4.8-2.6,4.8-7.1,4-11.8c-0.7-4.3-1.5-8.6-1.6-12.9c-0.2-10.5,0.3-21,0.1-31.5c-0.1-5.4,1.2-10.2,3.6-15
	c1.9-3.7,3-7.7,4.5-11.5c-1.4,0.2-1.9,0.8-2.5,1.4c-4.1,4.2-7.5,4.1-11.3-0.3c-1.7-2-3-4.3-4.8-6.2c-0.6-0.6-3-0.8-3.2-0.4
	c-2.3,4-5.7,5.2-10.4,4.4c1.1,3.2,2.3,5.7,2.9,8.3c4.3,20,4.5,40.1,0.6,60.2c-0.9,4.7-3.2,8-7.4,10.1
	C380.5,576.4,377.8,577.8,375,579.2z M532.5,211.4c0.4,4.1,1,7.2,1,10.2c-0.1,4.8-4.4,7.6-8.9,6.2c-0.8-0.3-1.7-0.5-2.5-0.7
	c-4.5-1.3-5.2-0.8-3.9,3.9c1.5,5.4,3.6,10.6,5.4,15.9c2.9,8.6,5.2,17.4,8.6,25.8c4.6,11.4,11.9,21.6,14.2,34c0.6,3.3,3.5,4.5,7,3.9
	c3-0.5,5.3-3.3,5-6.5c-0.2-2.3-0.8-4.7-1.4-7c-1.4-6.1-3.3-12-4.2-18.2c-1.8-13.1-2.7-26.3-4.5-39.4
	C546.8,228.6,541.1,219.6,532.5,211.4z M342.9,212.4c-7.7,5.7-12.9,13.1-14.7,21.7c-2.5,11.9-3.5,24.1-5.2,36.2
	c-0.8,5.7-1.5,11.3-2.5,17c-1,5.1-2.4,10.2-3.5,15.3c-0.8,3.8,1.1,7.1,4.4,7.9c3.8,1,6.2-0.6,7.5-4.6c1.9-5.5,3.7-11.1,6-16.4
	c3.4-8,7.8-15.6,10.9-23.7c3.6-9.4,6.4-19.1,9.6-28.6c0.8-2.5,1.6-5,2.1-7.6c0.5-2.5-0.3-3.9-3.3-2.9c-2.3,0.8-4.9,1.7-7.1,1.3
	c-4.6-0.8-6.6-5.6-5.2-11.1C342.1,215.4,342.5,213.9,342.9,212.4z M482.8,433.4c0.4-0.1,0.8-0.2,1.1-0.2c-0.2-3.7-0.6-7.4-0.6-11.1
	c0.1-8.3,0.1-16.7,0.7-24.9c0.8-10.1,2.9-20.2,3.1-30.4c0.2-10.7-1-21.4-2.2-32.1c-0.4-3.4-1.6-7.4-3.9-9.7
	c-2.6-2.7-6.7-4.2-10.3-5.5c-4.7-1.6-6.3-0.4-6.1,4.6c0.4,10.7,0.5,21.5,2.2,32.1c3.2,20,7.2,39.9,11.1,59.8
	C479.1,421.9,481.1,427.6,482.8,433.4z M391,432.4c0.3,0.1,0.6,0.2,0.9,0.2c0.3-0.3,0.8-0.6,0.9-1c2.8-11.2,5.6-22.4,8.2-33.7
	c0.6-2.6,0.3-5.5,0.8-8.2c2.6-14.6,5.6-29.1,7.8-43.8c1.1-7.5,0.7-15.2,0.8-22.8c0-2.1-0.3-4.1-3-4.4c-6.1-0.8-15.7,5.8-16.6,12
	c-1.2,8.4-1.9,16.9-2.7,25.3c-1.3,14-0.4,27.9,3,41.6c1.7,6.8,1.9,13.5,1.1,20.4C391.7,422.8,391.4,427.6,391,432.4z M452.9,250.9
	c-0.2-0.9-0.3-1.5-0.4-2.2c-1.7-7.4-3.3-14.8-5.3-22.2c-2.1-7.7-4.5-15.2-7-22.8c-0.4-1.2-1.7-2-2.5-3c-0.9,0.9-2.2,1.6-2.7,2.7
	c-1.7,4.1-3.3,8.3-4.5,12.6c-2.5,9.1-5,18.3-7.1,27.5c-0.7,3.1-1.4,6.8-0.3,9.5c2.9,6.9,6.7,13.5,10.5,20c1.7,3.1,5.3,3,7.5,0.3
	c0.8-0.9,1.4-2.1,2-3.2c2.7-5.3,5.5-10.5,8.2-15.8C451.9,253.2,452.5,251.9,452.9,250.9z M345.8,205.8c0.4,0.2,0.7,0.4,1.1,0.7
	c1.5-1.4,2.8-3,4.6-4c1.3-0.7,3.2-0.4,4.8-0.6c0.1,1.4,0.4,2.8,0.3,4.2c0,0.8-0.6,1.6-0.8,2.4c-0.7,2.8,0.1,4.4,3.3,4.7
	c5.4,0.5,10.1-2.8,13.7-8.4c7.8-12.1,8.7-25.5,8.2-39.3c-0.1-4-1.9-5.6-5.5-3.8c-4.4,2.1-8.7,4.8-12.4,8
	c-9.1,7.6-12.6,18.5-15.8,29.4C346.6,201.4,346.2,203.6,345.8,205.8z M529.1,207.3c0-1.9,0.2-2.6,0-3.1c-2.9-8.4-5.1-17.2-9.2-25
	c-4.2-8.1-11.1-14.3-20.1-17.4c-3.8-1.3-5.2-0.5-5.3,3.6c-0.7,14.9,0.3,29.4,9.6,42.1c2.3,3.2,5.3,5.3,9.2,5.7
	c5.8,0.7,6.8-0.4,5.4-6c-0.1-0.4-0.2-0.7-0.2-1.1c0.2-1.4,0.4-2.8,0.6-4.2c1.7,0.4,3.6,0.4,5.1,1.2
	C525.7,203.8,526.9,205.3,529.1,207.3z M314.5,307.8c0,1.4-0.1,2.9,0,4.3c0.3,5.4,0.9,10.7,0.9,16c0.1,8.6-0.6,17.3,0,25.9
	c0.3,4.7,2.3,9.3,3.9,13.8c0.3,1,2.1,2.4,2.9,2.2c1.2-0.3,2.4-1.7,3.1-2.9c0.6-1,0.7-2.4,0.7-3.6c0.2-8.7,0.1-17.4,0.5-26.1
	c0.1-2.1,1.7-4.1,2.6-6.2c1.3,1.7,2.9,3.3,4,5.1c2,3.4,2.5,7.8,6.8,10c1.7-3.6,1.5-6.7,0.3-10c-1-2.6-2.1-5.4-2-8.1
	c0.3-7.7-3.1-13.7-7.8-19.4C325.3,314.3,318.7,313.4,314.5,307.8z M535.9,346.6c1.2-1.4,2.2-2.3,2.8-3.5c1.5-2.9,2.6-5.9,4.1-8.8
	c0.7-1.3,2.1-2.1,3.2-3.2c0.8,1.3,2.1,2.5,2.3,3.9c0.9,5.7,1.6,11.4,2,17.1c0.2,3.1-0.7,6.2-0.8,9.3c0,2.1,0.3,4.4,0.9,6.4
	c0.3,1,1.6,2.1,2.6,2.2c0.9,0.1,2.4-1.1,2.7-2c1.6-5.1,3.9-10.3,4.2-15.6c0.8-14.1,0.7-28.2,0.9-42.2c0-0.9-0.2-1.8-0.4-3
	c-6.4,6.5-9.5,6.8-15.9,1.6c-1,1.6-1.7,3.3-2.9,4.6c-2.8,3-4.1,6.5-4,10.5c0.1,5-0.7,9.6-3,14.1
	C533.1,340.8,533.6,343.5,535.9,346.6z M519.1,175.3c0.6-1.4,1.2-2.1,1.1-2.7c-0.3-5.9,0.1-12-1.2-17.8c-2.1-9.6-8-17-16.1-22.5
	c-1.9-1.3-4.5-3.1-6.4-0.8c-3.2,3.7-7.4,5.2-11.5,7c-2.9,1.3-2.8,3.8-0.7,6.2c3.3,3.5,6.2,7.3,9.4,10.9c0.9,1,1.8,2.2,3,2.7
	C505.4,161.9,513.1,166.9,519.1,175.3z M384.9,299.5c-0.2,0.1-0.5,0.2-0.7,0.2c-1.4,13.3-2.4,26.7-4.3,40
	c-2.9,19.6-0.1,38.5,5.9,57.1c0.9,2.9,2.3,5.6,3.4,8.4c-0.1-5.2-0.8-10.2-1.9-15.1c-3.9-18.3-2.7-36.7-0.3-55.1c1-7.3,4-14.4,1.5-22
	C387.1,308.6,386.1,304,384.9,299.5z M485.2,404.7c0.2,0.1,0.4,0.2,0.6,0.3c0.5-0.8,1.2-1.6,1.5-2.5c5.5-15,9.7-30.2,9-46.3
	c-0.5-10.8-1.9-21.6-3-32.4c-0.8-8.1-1.5-16.2-2.3-24.3c-0.3-0.1-0.6-0.1-0.9-0.2c-1.5,7-3.1,14-4.6,21c-0.1,0.6-0.1,1.3,0,1.9
	c1.1,5.9,2.6,11.7,3.3,17.6c2,15.8,2.9,31.6-0.3,47.4C487.4,392.9,486.3,398.8,485.2,404.7z M470.4,172.5c6.9,5.2,10,4.3,18,0.2
	c1.7-0.9,3.1-3.1,3.6-5c2.2-7.4-0.4-13.7-5.5-19c-1.1-1.2-2.7-1.8-4.1-2.7c-0.7,1.4-1.7,2.7-2,4.2
	C478.6,158.1,475.9,165.8,470.4,172.5z M404.2,173.4c-2.7-5.8-5.3-10.7-7.4-15.8c-1.2-3-1.7-6.2-2.5-9.3s-2.5-3-4.6-1.2
	c-5.8,4.9-8.8,15.3-6.5,22.4c0.2,0.7,0.6,1.6,1.1,1.8c4.1,1.7,8.1,3.8,12.4,4.5C399.2,176.2,401.9,174.2,404.2,173.4z M438.4,89.4
	c0,2.9,0,5.7,0,8.6c0,9.1-0.7,7.4,7.8,7.7c2.6,0.1,3.6-0.8,3.6-3.4c0.1-5.7,0.5-11.5,0.3-17.2c-0.1-3.2-0.9-6.4-1.7-9.5
	c-0.9-3.4-3.5-3.3-6.3-2.8c-2.7,0.4-4.2,1.5-3.9,4.6C438.6,81.4,438.4,85.4,438.4,89.4z M436.2,89.3
	C436.2,89.3,436.1,89.3,436.2,89.3c0-4,0-8,0-12c0-4.1-1-4.9-5-5.1c-3.8-0.1-4.9,2.6-5.1,5.3c-0.5,6.8-0.7,13.7-0.7,20.5
	c0,7.8,0.1,7.8,8,7.3c2-0.1,2.9-0.8,2.8-2.9C436.1,98,436.2,93.6,436.2,89.3z M354.6,203.5c-7,2.7-12.2,12.2-10.7,18.6
	c0.7,3,3.1,4.5,6.1,4.1s5.8-3,9.1-0.8c0.2,0.1,1-0.2,1.3-0.5c2.3-3.3,4.5-6.6,6.7-9.9c-0.3-0.3-0.5-0.6-0.8-0.8
	c-1.8,0.4-3.5,1.1-5.3,1.1c-2.3,0-5.2,0.3-6.9-0.9c-1.1-0.8-0.8-3.9-0.7-6C353.4,206.8,354.1,205.3,354.6,203.5z M515.2,225.8
	c0.2-0.4,0.5-0.9,0.7-1.3c2.9,0.5,5.7,0.9,8.6,1.5c4.2,0.8,6.9-1,6.6-5.2c-0.3-3.7-1-7.6-2.7-10.7c-1.5-2.8-4.5-4.7-6.9-7
	c-0.3,0.3-0.7,0.6-1,0.9c0.4,1.3,0.9,2.5,1,3.9c0.2,2.1,0.9,4.7,0,6.2c-1.5,2.5-4.5,2.2-7.1,1.4c-1.8-0.5-3.7-0.9-5.6-1.3
	c-0.2,0.3-0.5,0.6-0.7,0.9C510.5,218.5,512.8,222.2,515.2,225.8z M385.3,125.6c0.1,0.3,0.3,0.6,0.4,0.9c0.5,0,1,0.1,1.4-0.1
	c13.5-6,27.7-8.4,42.4-8.7c5.9-0.1,7.1-1.4,7.1-7.3c0-1.9-0.6-2.8-2.5-2.8c-4.9,0.2-9.9-0.8-14,3.3c-1.5,1.5-3.8,2.3-5.9,3.1
	c-7.2,2.7-14.5,5.1-21.6,7.9C390,122.8,387.7,124.4,385.3,125.6z M489.5,126.6c0.2-0.4,0.3-0.7,0.5-1.1c-2.8-1.3-5.4-2.7-8.3-3.9
	c-8.6-3.5-17.7-6-25.8-10.5c-5-2.8-9.7-3.2-14.8-3.3c-1.8,0-2.6,0.5-2.6,2.6c0,5.5,1.4,7.2,6.9,7.2c10.5,0.2,20.8,1.4,30.8,4.5
	C480.6,123.6,485,125.1,489.5,126.6z M418,109c5.1-2.4,5-2.4,5-6.1c-0.1-6.7-0.3-13.5,0-20.2c0.1-3.1,1.4-6.2,1.9-9.3
	c0.2-1-0.2-2.9-0.8-3.1c-1.8-0.8-3.9-1-5.8-1.4c-0.4,2-1.1,3.9-1.1,5.9c0.1,4.9,0.6,9.8,0.7,14.8C418.1,95.7,418,102,418,109z
	 M473.3,408.8c-1-6.9-2-13.7-3-20.6c-2,5.1-3.2,10.4-4.2,15.7c-1.5,7.9-1.4,7.9,5.8,5.4C472.3,409.2,472.7,409,473.3,408.8z
	 M405.8,388.1c-0.3,0-0.6,0-0.8,0c-0.2,1.2-0.5,2.3-0.6,3.5c-0.6,4.3-1.2,8.6-1.7,12.9c-0.2,1.5-0.4,4.3-0.1,4.4
	c2.4,0.6,4.7,4,7.8,0.8C408.8,402.5,407.3,395.3,405.8,388.1z M481.6,257.9c0.3-0.2,0.6-0.4,1-0.6c-1.1-6.9-2.1-13.7-3.2-20.6
	c-0.3,0-0.6,0-1,0c-1.1,4-2.3,7.9-3.4,11.9c-0.2,0.8-0.4,2,0.1,2.4C477.2,253.4,479.4,255.7,481.6,257.9z M392.5,257.9
	c7.4-4.9,8.2-6.9,6.1-13.9c-0.5-1.8-0.8-3.6-1.3-5.4c-0.2-0.7-0.7-1.3-1.5-2.7C394.6,243.6,393.6,250.4,392.5,257.9z"/>
<path id="грудь" class="st0" d="M123.4,184.9c-9.7,0.2-17.6-3.9-23.9-11.3c-1.7-2-2-3.9-0.8-6.5c1-2.2,0.8-4.9,1.3-7.4
	c0.3-1.7,0.3-3.5,1.1-4.9c4.7-7.7,9.7-15.3,14.5-23c1.7-2.7,3.8-3.9,6.8-3.2c7.8,1.9,15.7,3.7,23.4,6c2.5,0.8,4.4,2.8,4.4,6.2
	c-0.1,9.9,0.4,19.8,0.2,29.8c0,2-1.3,4.8-2.9,5.9C140.2,181.2,132.4,184.9,123.4,184.9z M161.9,179.4c0.8,0.3,1.5,0.8,2.3,1.2
	c14,7.7,29.2,5.3,40.1-6.4c1.9-2,3.2-4.1,1.3-7.2c-1.3-2.1-2.1-4.6-1-7.4c0.4-1-0.1-2.7-0.7-3.7c-5-8-10.2-15.9-15.1-23.9
	c-1.9-3.1-4.3-4.3-7.8-3.3c-5,1.4-10,2.8-15,4.2c-2.7,0.7-5.8,0.9-8.2,2.2c-5.5,2.8-3.3,8.2-3.6,12.6c-0.4,6.4-0.1,12.9-0.1,22
	C153.6,174.9,154.4,176.2,161.9,179.4z"/>
<path id="бицепс" class="st0" d="M208.5,161.2c2.7,3.2,4.8,5.7,6.9,8.3c2.6,3.3,5.6,5.8,9.6,7.3c6.5,2.3,10.1,7.8,12.3,13.7
	c2.8,7.7,5,15.6,6.8,23.5c1,4.2,1.2,9.3-3.3,11.8c-4.3,2.3-8.1-0.9-11.5-3.4c-7.3-5.3-10.4-13.3-13.8-21.2
	c-5.2-12.1-6.8-24.9-7.6-37.8C207.9,163.1,208.1,162.8,208.5,161.2z M90.4,167.8c-3.1,3.9-6.5,7.2-11.3,9.3c-3.5,1.6-6.8,4.7-8.9,8
	c-2.9,4.4-4.9,9.5-6.6,14.5c-2.3,6.5-4.2,13.1-3.4,20.1c0.6,5.8,4.4,8.3,9.6,5.8c3-1.4,5.8-3.4,8.2-5.7c6.1-5.7,8.6-13.5,11.8-20.9
	c5-11.7,5.9-24,5.7-37C93.6,164,92,165.9,90.4,167.8z"/>
<path id="передние_дельты" class="st0" d="M115,127.5c-4.2,6.8-8.2,13.8-12.7,20.4c-5.3,7.7-10.9,15.3-16.8,22.6
	c-2,2.4-5.3,4-8.2,5.4c-2.1,1-4.4,0.9-4.7-2.6c-1.1-14.1,0.9-27.5,9.4-39.1C89.7,123.6,106.9,122.2,115,127.5z M196.7,124.6
	c-1,0.1-1.9,0.4-2.9,0.6c-3.8,0.9-4.5,2.3-2.4,5.5c7,11,14,22,21.5,32.7c2.9,4.1,6.7,8.1,11,10.7c6.6,4.1,9.4,2.4,8.6-5.3
	c-0.9-8.6-2.2-17.4-5-25.5c-4.3-12.7-13.9-18.7-26.6-18.7C199.4,124.6,198,124.5,196.7,124.6z"/>
<path id="пресс" class="st0" d="M140.5,241.7c2.2,0.9,4.5,1.5,6.4,2.7c1,0.6,1.9,2.1,1.9,3.2c0.7,14.7,1.2,29.4,1.7,44.1
	c0.1,2.1-0.1,4.3-0.7,6.3c-0.2,0.9-1.5,2-2.5,2.2c-0.5,0.1-1.8-1.3-2-2.3c-3.1-10.8-6.4-21.5-9-32.4c-1.9-7.7-2.9-15.6-4.3-23.3
	c2.1-0.8,3.3-1.3,4.5-1.8c0-0.2,0-0.5,0-0.7c-1.6-0.2-3.2-0.4-5.1-0.7c-0.5-4.3-1.1-8.4-1.5-12.6c-0.1-1,0.5-2.2,1.1-3
	c4.2-4.9,12.8-5.9,18.1-2.1c0.7,0.5,1.3,1.9,1.3,2.8c0.1,4.9-0.1,9.7-0.2,14.6c0,3-1.5,3.9-4.3,3.2c-1.8-0.4-3.7-0.6-5.6-0.8
	C140.5,241.3,140.5,241.5,140.5,241.7z M164,242c-0.6,0.1-1.3,0-1.7,0.3c-2.4,1.7-6.7,0.9-7,5.4c-0.6,9.2-1.4,18.4-1.7,27.6
	c-0.2,7.2,0.2,14.5,0.6,21.7c0.1,1.2,1.7,2.3,2.7,3.4c0.8-0.9,2-1.8,2.3-2.8c1.1-3.7,1.8-7.5,2.8-11.2c3.5-12.6,8.1-24.8,9.1-38
	c0.2-3.2,1.6-6.9-3.1-8.7c1.5-0.2,3.1-0.4,4.6-0.6c0.6-4,1.5-7.9,1.6-11.9c0.1-1.6-0.9-3.8-2.2-4.8c-4.9-3.8-10.3-5-15.9-1.6
	c-1.1,0.7-2.3,2.3-2.4,3.5c-0.2,4.9,0.1,9.7,0.2,14.6c0,2.7,1.3,3.5,3.9,3c2-0.4,4-0.7,6-1C164,241.3,164,241.7,164,242z
	 M150.1,204.3c0.1-1.5,0.6-3,0.3-4.5c-0.2-1.1-1-2.7-2-3.1c-3.6-1.3-17.2,2.2-18.4,7.3c-1,4-1.5,8.2-1.6,12.4
	c-0.1,4.5,1.2,5.1,5.2,2.8c4.2-2.4,8.5-2.6,12.9-1.2c3.4,1.1,4.1,0.8,4.1-3c0-3.6-0.5-7.2-0.7-10.8C150,204.3,150,204.3,150.1,204.3
	z M172.3,201.4c-4.5-3.4-9.7-5-15.4-4.8c-1,0-2.8,1.4-2.8,2.2c-0.3,5.8-0.3,11.7-0.3,17.5c0,2.1,0.9,3.1,3.4,2.1
	c3.8-1.7,7.7-1.9,11.5,0c6.8,3.3,7.3,3.1,7.4-4.7c0-0.2,0-0.5,0-1.7C176,208.7,176.1,204.3,172.3,201.4z M150.7,183.9
	c0-5-1.8-6.3-6.1-3.7c-4.4,2.7-8.7,5.7-12.7,9.1c-1.8,1.6-2.8,4.3-3.7,6.7c-0.4,1,0.3,2.5,0.5,3.8c1.1-0.3,2.3-0.4,3.4-0.8
	c3.9-1.4,7.7-3.4,11.7-4.2c6.6-1.3,6.7-1,6.8-7.8c0-0.2,0-0.5,0-0.7C150.7,185.4,150.7,184.7,150.7,183.9z M154,191.6
	c0.3,1,1.6,2.3,2.6,2.4c5.9,0.6,11.5,1.7,16.4,5.3c2.1,1.5,3.6,0.4,3.2-2.3c-0.3-1.8-0.9-3.6-1.8-5.2c-3.1-5.1-8.1-7.9-13.1-10.7
	c-6.6-3.7-7.9-3-8,4.5C153.5,187.7,153.4,189.7,154,191.6z"/>
<path id="ягодицы" class="st0" d="M392.9,321.9c-2-7.7-3.6-15.5-6.3-23c-1.6-4.5-1.6-8.4,0.4-12.5c0.3-0.7,0.6-1.4,0.8-2.1
	c1.7-7.1,2.9-14.4,5.2-21.2c2.1-6.4,7.2-10.7,13.9-11.5c7-0.9,13.3,0.7,17.1,7.8c3.6,6.8,8.9,13,11.1,20.2
	c2.9,9.5,3.2,19.9-2.8,28.8c-2.3,3.5-5.9,5.6-10.5,6.3c-7.9,1.2-15.6,3-23.4,4.8C396.3,319.9,394.4,321.2,392.9,321.9z M483.7,317.6
	c1.8-6.9,3.3-13.8,5.5-20.5c0.9-2.6,1.1-4.5,0.2-7.1c-2.1-6.1-4.9-12.2-5.5-18.4c-0.6-7.2-3-12.6-8.5-17c-7.1-5.7-18.9-4-23.6,3.7
	c-3.3,5.4-5.7,11.4-9.2,16.6c-6.7,10.1-5.1,20.4-1.5,30.7c1.5,4.3,5.2,7.6,9.8,8.5c10.7,2,21.9,2,32.2,8.4
	C483.4,320.3,483.4,318.9,483.7,317.6z"/>
<path id="широчайшие" class="st0" d="M472.5,248.5c-6.1,0.3-11.4,0.6-17.6,0.9c-1.1-4-2.7-8.7-3.5-13.5
	c-1.7-10.6-4.3-21-8.3-30.9c-1-2.6-0.3-4,1.8-6c7.3-7,14.3-14.5,21.3-21.9c1.5-1.6,2.5-2.5,5-1.4c5.4,2.4,11.2,2.7,16.6-0.1
	c2.4-1.3,3.7-0.3,3.9,2c0.3,2.3,0.3,4.7,0,7.1c-1.9,17.7-7.5,34.4-14.8,50.6C475,239.7,473.9,244.4,472.5,248.5z M382.7,182.4
	c1.1,5.9,1.5,12,3.3,17.6c5,15.8,10.6,31.5,16.1,47.2c0.3,0.8,1.7,1.6,2.7,1.7c4.3,0.4,8.6,0.7,12.9,0.7c0.9,0,2.4-0.7,2.7-1.5
	c1-2.5,2-5.2,2.4-7.8c1.8-12.1,4.6-24,9.1-35.3c1-2.5,0.6-4-1.5-5.7c-7.9-6.8-16-13.5-21.8-22.3c-1.3-2-2.5-2-4.6-1.2
	c-5.1,2.1-10.4,2.6-15.7,0.5c-4.3-1.7-5.1-1.2-5.3,3.5c0,0.9,0,1.7,0,2.6C383,182.3,382.8,182.3,382.7,182.4z"/>
<path id="икры" class="st0" d="M493.3,475.7c-0.7,4.4-1.2,8.9-2.1,13.2c-0.6,2.8-2.2,4.7-5.4,4.7c-3.2,0-5.4-1.3-6.2-4.7
	c-0.4-1.7-1.4-3.3-2.1-5c-1,1.4-2,2.8-3.1,4.2c-2.3,3.1-4.4,6.4-7.1,9.1c-2.8,2.9-5,2.5-7.5-0.7c-4.7-6-6.8-13.2-6.3-20.6
	c0.5-7.6,2.2-15,3.1-22.6c0.6-4.5,0.6-9.1,1.1-13.7c0.3-2.7,1-5.5,1.8-8.1c1-3.7,2.2-7.4,3.2-11.1c0.5-1.7,0.6-3.4,1.1-5.1
	c0.4-1.5,8.9-4.5,10.1-3.5c0.6,0.5,1.1,1.4,1.2,2.2c1.6,11.6,7.6,21.5,11.6,32.2C490.3,455.6,493,465.4,493.3,475.7z M383.6,488.2
	c0.8,4.3,3.2,5.8,7.2,5.3c3.6-0.4,4.5-2.9,5.1-5.9c0.3-1.3,1.3-2.4,1.9-3.6c0.8,1,1.7,2,2.5,3c2.4,3.3,4.3,6.9,7.1,9.9
	c3.1,3.3,5.7,2.9,8.3-0.8c3.9-5.4,6.1-11.6,5.7-18.2c-0.5-8.2-2.2-16.3-3.1-24.5c-0.5-4.8-0.6-9.6-0.8-14.4c-0.1-1.4,0.5-3.1-0.1-4
	c-3.5-5.4-4.4-11.6-5.8-17.6c-0.5-2.4-0.7-5.4-4.6-3.5c-0.4,0.2-1.3-0.4-1.9-0.9c-3.1-2.4-4.3-2.1-5.2,1.8c-2,8.7-5,16.9-8.8,24.9
	c-5.4,11.3-8.9,23.3-9.1,36.1C382.6,479.8,382.8,484.1,383.6,488.2z M198.3,552.5c-3.8-3.1-6.9-6-12.2-4.9c0.5-5.7,1.1-10.8,1.3-16
	c0.8-19.1,1.5-38.1,2.3-57.2c0.2-5,0.1-10,0.3-15c0.3-9.2,5.2-16.8,7.8-25.2c0.4,0,0.8,0,1.3,0c2.1,8.4,4.4,16.8,6.3,25.2
	c0.8,3.5,1,7.2,1.7,10.7c2.2,11.9-1.6,22.9-5.1,34c-3.7,11.8-5.3,23.8-4.3,36.2C198.1,544.4,198.1,548.5,198.3,552.5z M105.3,435
	c-2.5,10.5-5.3,21-7.4,31.6c-2.3,11.6-0.5,23,3.3,34.2c4.8,14.2,7.4,28.7,5.1,43.8c-0.4,2.7-0.3,5.5-0.4,8.3c3.8-3.1,6.8-6.6,12.5-5
	c-0.3-3.5-0.6-6.3-0.9-9.2c-0.6-6.8-1.6-13.7-1.8-20.5c-0.6-19.2-1-38.5-1.2-57.7c-0.1-9.7-5.4-17.6-8-26.9
	C105.7,434.4,105.3,434.7,105.3,435z M122.2,464.6c-0.1,6.9-0.2,13.7-0.3,20.6c-0.1,12.2-0.3,24.4-0.3,36.6c0,2.2,0.6,4.5,0.9,6.7
	c2.1-7.9,3.6-15.7,6.3-23.1c6.5-18,7.3-36.3,4.6-54.9c-0.3-2.4-1-4.8-1.7-7.7C125.9,448.2,122.2,457.1,122.2,464.6z M171.7,443.4
	c-0.7,9.7-1.7,19.3-2.2,29c-0.4,9.6,1.9,18.8,4.5,28c2.2,8,4.3,16.1,6.4,24.1c0.3,1.3,0.4,2.7,0.6,4c0.3,0,0.6,0,1,0
	c0.3-2.7,0.9-5.4,0.8-8c-0.1-18.6-0.3-37.2-0.5-55.8c0-2.2-0.4-4.5-1-6.7c-1.5-5.6-4.2-10.4-7.8-14.8
	C173,443.3,172.4,443.4,171.7,443.4z"/>
<path id="голень" class="st0" d="M186.6,582.4c1.3,0.8,3.5,0.2,5.3,0.2c1.2,0,2.8-0.8,3.5-0.2c5.2,3.9,11.1,1.1,16.6,1.7
	c1,0.1,2.1-1,3.2-1.5c-0.6-1-1-2.2-1.8-3c-1.1-1.1-2.8-1.7-3.9-2.8c-3.4-3.8-8.2-7.3-9.6-11.8c-1.1-3.7-2.6-7.1-4.4-10.3
	c-1.8-3.1-4.6-5.1-8.4-4.5c-3.6,0.5-6.1,2.8-7,6.4c-1.1,4.1-1.8,8.2-2.6,12.4C177.2,575.7,181.7,579.4,186.6,582.4z M124.8,557.8
	c-0.9-3.8-3.2-6.9-7.3-7.7c-3.7-0.7-6.6,1.2-8.5,4.3c-1.9,3.2-5.1,5.9-4.1,10.3c0.2,0.8-0.7,2-1.3,2.9c-3.4,4.7-7.3,8.8-12.3,11.7
	c-0.9,0.5-1.7,1.9-1.9,3c-0.1,0.5,1.6,1.8,2.4,1.7c5.6-0.4,11.5,2.2,16.9-1.5c0.8-0.6,2.3,0,3.5,0c2.2-0.1,4.9,0.5,6.5-0.6
	c4.5-3,8.6-6.6,7.8-13C126,565.1,125.7,561.4,124.8,557.8z M182.1,550.7c0.7-1.4,1.8-2.8,1.9-4.3c0.9-7.7,1.8-15.4,2.1-23.1
	c0.8-21.2,1.2-42.4,2-63.7c0.1-3.3,0.8-6.6,1.8-9.8c1.8-5.8,4.2-11.4,6-17.2c1.6-4.8-0.2-8.4-4.6-9.9c-4.7-1.6-9.9,0.5-11.7,4.7
	s-0.8,8.2,0.6,12c3.5,9.4,4.5,19,4.3,28.9c-0.1,6.2,0.3,12.5,0.3,18.7c0,11.5,0,23-0.1,34.5c0,2.1-0.7,4.2-1.1,6.2
	c-1.2,7.4-2.4,14.9-3.6,22.4C180.8,550.4,181.5,550.6,182.1,550.7z M123.5,550.1c-0.3-4.3-0.4-8.6-1-12.9c-0.7-5-2.6-10-2.6-15
	c-0.3-21.2-0.3-42.4,0.1-63.7c0.1-5.4,2-10.7,3-16c0.8-4.2,2.3-8.5,2.2-12.7c0-5.3-5.5-8.3-11.3-7.2c-4.8,0.9-7.1,4.6-5.7,9.9
	c0.9,3.5,2.4,6.8,3.7,10.2c2.5,6.7,4.9,13.2,4.7,20.6c-0.3,12.4-0.3,24.7,0.3,37.1c0.7,15.3,2.1,30.6,3.3,45.9
	c0.1,1.5,1.3,2.9,1.9,4.4C122.5,550.4,123,550.2,123.5,550.1z M494.6,576.5c-4.5-2.3-8.9-4.6-9.6-10.4c-1.1-9.3-3.1-18.5-3.4-27.8
	c-0.3-14.1,1.3-28.1,6.2-41.8c-3.4-0.1-7,0.5-9.3-3.2c-1.8-3-2.9-2.9-5.1,0.1c-1.8,2.3-3.6,4.8-5.7,6.9c-2.4,2.4-5.5,2.3-8-0.1
	c-1.1-1.1-1.8-2.6-2.7-3.9c-0.5,0.4-1,0.8-1.5,1.2c1.2,3.1,2.5,6.1,3.6,9.2c1.5,3.9,4.2,7.9,4.2,11.9c0,17.4,1.8,34.9-1.1,52.3
	c-1.2,7.3,4.2,12,11.6,10.8c4-0.6,8.1-0.6,12.1-0.6c4.6,0,9.4,1.6,14.9-1.4C498.3,578.3,496.5,577.5,494.6,576.5z M375.1,580.7
	c2.8,0.3,5.7,0.9,8.4,0.7c6.3-0.5,12.5-1.7,18.9,0.2c1.8,0.5,4.4-0.4,6.3-1.5c4.8-2.6,4.8-7.1,4-11.8c-0.7-4.3-1.5-8.6-1.6-12.9
	c-0.2-10.5,0.3-21,0.1-31.5c-0.1-5.4,1.2-10.2,3.6-15c1.9-3.7,3-7.7,4.5-11.5c-1.4,0.2-1.9,0.8-2.5,1.4c-4.1,4.2-7.5,4.1-11.3-0.3
	c-1.7-2-3-4.3-4.8-6.2c-0.6-0.6-3-0.8-3.2-0.4c-2.3,4-5.7,5.2-10.4,4.4c1.1,3.2,2.3,5.7,2.9,8.3c4.3,20,4.5,40.1,0.6,60.2
	c-0.9,4.7-3.2,8-7.4,10.1c-2.7,1.4-5.4,2.8-8.1,4.2C375.1,579.7,375.1,580.2,375.1,580.7z"/>
<path id="голова" class="st0" d="M178,57.9c5.4,0.2,5.9,1.1,3.9,5.9c-1.5,3.8-2.8,7.6-4.3,11.4c-0.2,0.6-0.5,1.4-0.9,1.5
	c-3.5,0.5-3.1,3.3-3.6,5.6c-1.3,6.6-4.5,12.1-8.8,17c-3.3,3.7-8,3.9-12.5,3.9c-9.5,0-15.7-5.1-19.1-15.4c-1.1-3.4-1.9-6.9-3.5-10
	c-1-1.6-2.2-3.2-3-4.9c-1.4-3.1-2.8-6.4-4-9.6c-1.6-4.6-1.2-5.2,3.9-5.4c-1.2-8.3,1.3-15.1,8-20.4c5.3-4.2,10.9-7.7,17.8-7.7
	c7.6,0,13.5,4,19.3,8.8C177.6,43.7,178.6,50.5,178,57.9z M453.2,68.1c0.3-0.4,0.5-1.1,0.9-1.2c3.9-1,4.8,2.7,6.8,4.6
	c3.7-4.3,5.4-10,4.5-14.7c-0.9,0-1.9,0.1-2.8,0.1c-0.3-11.4-1.2-14.6-6.4-19.6c-5.2-5.1-11.2-8.8-18.8-8.7c-7.4,0-13.4,3.6-18.5,8.6
	c-5.5,5.3-8,11.9-5.7,19.9c-1.6-0.1-2.6-0.2-3.6-0.2c-0.8,5.3,1.4,11.7,4.9,14.5c3.1-4.6,3.9-6.2,10-2.8c1.7,0.9,3.8,1.1,5.7,1.5
	c7.9,1.4,15.6,0.9,23.1-2L453.2,68.1z"/>
<path id="предплечье" class="st0" d="M58.3,209.7c-1.5,17.8,2.4,22.6,15.1,17.5c-1.2,4.2-2.1,7.6-3.2,11
	s-2.9,6.7-3.3,10.1c-0.9,8.1-4.7,14.7-8.4,21.7c-4.4,8.3-7.7,17.2-11.4,25.8c-0.8,1.8-0.9,4-3.9,3.3c-2.8-0.7-3.1-2.6-2.6-4.9
	c1.1-5.5,2.2-11,3.5-16.4c2.2-9,2.5-18,0.1-27c-3.8-14,0.7-25.7,9.7-36.3C55.1,213,56.6,211.6,58.3,209.7z M263.6,293.5
	c-0.6-3.1-1.2-6.1-2-9.1c-2.6-10.9-4.6-21.6-1.7-32.9c1.6-6.2,2.6-12.7,0.5-19.2c-2.7-8.5-7.5-15.6-13.8-21.8c-0.2-0.2-0.6,0-1,0
	c2.3,8.3,1.7,12.8-1.6,16.3c-3.9,4.1-8,2.7-12.8,1c0.8,3.8,2,7.4,3.1,11s2.2,7.3,3.3,11c1.4,4.5,2,9.4,4.3,13.3
	c6.7,11.4,13,22.9,16.2,36.1C263.6,299.3,264.5,298.3,263.6,293.5z M262.5,250.5c-0.5,3.4-1.8,7-1.4,10.3
	c1.5,11.7,3.4,23.3,5.4,34.9c0.4,2.2,2.3,3.7,5.7,3.1c-0.8-3.9-1.3-7.7-2.3-11.4c-2.5-8.7-5.4-17.3-4.8-26.7
	c0.2-3.4-0.9-6.9-1.4-10.4C263.3,250.4,262.9,250.5,262.5,250.5z M38.2,294.5c1-5.8,1.9-11.5,3.3-17.2c2-8,2.4-16,0.8-24.1
	c-0.2-1-0.7-1.9-1-2.9c-0.5,0-1,0-1.5,0c1.9,16.8-4.7,32.2-8,49C35.8,298.7,37.7,297.6,38.2,294.5z M533.4,221.7
	c-0.1,4.8-4.4,7.6-8.9,6.2c-0.8-0.3-1.7-0.5-2.5-0.7c-4.5-1.3-5.2-0.8-3.9,3.9c1.5,5.4,3.6,10.6,5.4,15.9c2.9,8.6,5.2,17.4,8.6,25.8
	c4.6,11.4,11.9,21.6,14.2,34c0.6,3.3,3.5,4.5,7,3.9c3-0.5,5.3-3.3,5-6.5c-0.2-2.3-0.8-4.7-1.4-7c-1.4-6.1-3.3-12-4.2-18.2
	c-1.8-13.1-2.7-26.3-4.5-39.4c-1.5-11-7.2-19.9-15.8-28.1C532.9,215.5,533.5,218.6,533.4,221.7z M328.2,234.1
	c-2.5,11.9-3.5,24.1-5.2,36.2c-0.8,5.7-1.5,11.3-2.5,17c-1,5.1-2.4,10.2-3.5,15.3c-0.8,3.8,1.1,7.1,4.4,7.9c3.8,1,6.2-0.6,7.5-4.6
	c1.9-5.5,3.7-11.1,6-16.4c3.4-8,7.8-15.6,10.9-23.7c3.6-9.4,6.4-19.1,9.6-28.6c0.8-2.5,1.6-5,2.1-7.6c0.5-2.5-0.3-3.9-3.3-2.9
	c-2.3,0.8-4.9,1.7-7.1,1.3c-4.6-0.8-6.6-5.6-5.2-11.1c0.4-1.5,0.8-3,1.1-4.6C335.2,218.1,330,225.4,328.2,234.1z"/>
<path id="трицепс" class="st0" d="M345.8,205.8c0.5-2.2,0.8-4.5,1.5-6.6c3.2-10.9,6.7-21.8,15.8-29.4c3.8-3.1,8-5.9,12.4-8
	c3.6-1.7,5.4-0.2,5.5,3.8c0.5,13.7-0.4,27.1-8.2,39.3c-3.6,5.6-8.3,8.9-13.7,8.4c-3.3-0.3-4-1.9-3.3-4.7c0.2-0.8,0.8-1.6,0.8-2.4
	c0.1-1.4-0.2-2.8-0.3-4.2c-1.6,0.2-3.5-0.1-4.8,0.6c-1.7,0.9-3.1,2.6-4.6,4C346.5,206.3,346.1,206.1,345.8,205.8z M529,204.2
	c-2.9-8.4-5.1-17.2-9.2-25c-4.2-8.1-11.1-14.3-20.1-17.4c-3.8-1.3-5.2-0.5-5.3,3.6c-0.7,14.9,0.3,29.4,9.6,42.1
	c2.3,3.2,5.3,5.3,9.2,5.7c5.8,0.7,6.8-0.4,5.4-6c-0.1-0.4-0.2-0.7-0.2-1.1c0.2-1.4,0.4-2.8,0.6-4.2c1.7,0.4,3.6,0.4,5.1,1.2
	s2.7,2.3,4.9,4.3C529.1,205.4,529.2,204.7,529,204.2z"/>
<path id="ладони" class="st0" d="M55.1,341.6c-1.3-3-2.7-5.9-3.8-8.9c-1-2.6-1.2-6.2-4.8-6.3c-3.8-0.1-3.9,3.7-4.7,6.3
	c-2.1,6.7-1.5,13.5-0.2,20.4c0.5,2.4,0.9,5,0.5,7.4c-0.2,1.5-1.9,3.2-3.3,3.7c-0.7,0.3-2.9-1.6-3.4-2.9c-3.7-8.8-5.7-17.9-4.7-27.6
	c0.8-7.3,0-14.7,0.5-22c0.2-3.3,1.1-7.1,3-9.7c2.7-3.8,11.3-2.4,14,1.9c3.9,6.1,7.5,12.2,6.3,20.1c-0.5,3,1.5,6.4,2.5,9.6
	c0.9,2.7,1.3,5.2-0.2,7.6C56.2,341.2,55.6,341.4,55.1,341.6z M251.2,337.8c1.2-3,1.9-6.2,3.4-9c1.9-3.7,4.6-3.5,6.7,0.1
	c0.5,1,1,2,1.3,3.1c1.8,6.8,1.5,13.6,0.4,20.4c-0.4,2.7-0.8,5.5-0.5,8.2c0.2,1.4,1.7,3,3,3.6c0.7,0.3,2.9-1.3,3.3-2.4
	c2.9-6.9,5.3-14,5.1-21.6c-0.3-10.3-0.6-20.7-0.9-31c-0.1-4.1-1.5-8.1-5.5-8.8c-3.1-0.6-8,0.2-9.9,2.4c-4.5,5-8.2,10.9-7.8,18.4
	c0.2,3-0.7,6-1.2,9c-0.7,3.7-3.4,7.1-0.3,12.2C249.5,340.3,250.6,339.2,251.2,337.8z M314.5,312.1c0.3,5.4,0.9,10.7,0.9,16
	c0.1,8.6-0.6,17.3,0,25.9c0.3,4.7,2.3,9.3,3.9,13.8c0.3,1,2.1,2.4,2.9,2.2c1.2-0.3,2.4-1.7,3.1-2.9c0.6-1,0.7-2.4,0.7-3.6
	c0.2-8.7,0.1-17.4,0.5-26.1c0.1-2.1,1.7-4.1,2.6-6.2c1.3,1.7,2.9,3.3,4,5.1c2,3.4,2.5,7.8,6.8,10c1.7-3.6,1.5-6.7,0.3-10
	c-1-2.6-2.1-5.4-2-8.1c0.3-7.7-3.1-13.7-7.8-19.4c-5,5.5-11.6,4.5-15.8-1C314.5,309.3,314.4,310.7,314.5,312.1z M538.7,343.2
	c1.5-2.9,2.6-5.9,4.1-8.8c0.7-1.3,2.1-2.1,3.2-3.2c0.8,1.3,2.1,2.5,2.3,3.9c0.9,5.7,1.6,11.4,2,17.1c0.2,3.1-0.7,6.2-0.8,9.3
	c0,2.1,0.3,4.4,0.9,6.4c0.3,1,1.6,2.1,2.6,2.2c0.9,0.1,2.4-1.1,2.7-2c1.6-5.1,3.9-10.3,4.2-15.6c0.8-14.1,0.7-28.2,0.9-42.2
	c0-0.9-0.2-1.8-0.4-3c-6.4,6.5-9.5,6.8-15.9,1.6c-1,1.6-1.7,3.3-2.9,4.6c-2.8,3-4.1,6.5-4,10.5c0.1,5-0.7,9.6-3,14.1
	c-1.5,2.8-1,5.5,1.2,8.6C537,345.2,538.1,344.3,538.7,343.2z"/>
<path id="задние_дельты" class="st0" d="M519.1,175.3c-6-8.4-13.7-13.4-22.4-17.1c-1.2-0.5-2.1-1.7-3-2.7
	c-3.2-3.6-6.1-7.4-9.4-10.9c-2.2-2.3-2.2-4.9,0.7-6.2c4.2-1.8,8.4-3.3,11.5-7c2-2.2,4.5-0.5,6.4,0.8c8.1,5.6,14,13,16.1,22.5
	c1.3,5.7,0.9,11.8,1.2,17.8C520.3,173.2,519.8,173.9,519.1,175.3z M380.4,132.2c-2.8-1.7-5.4-2-8.2,0.1c-14,10-19.5,24.1-17.1,40.7
	c0.1,0.6,0.6,1.2,1.1,2.2c5.8-8.3,13.6-13.2,22.3-17c1.2-0.5,2-1.8,2.9-2.8c3.3-3.7,6.3-7.6,9.8-11.1c2.3-2.3,1.7-4-0.5-5.4
	c-1.3-0.9-3.1-1-4.4-1.9c-2.1-1.4-4-3.2-6-4.9C380.3,132,380.4,132.2,380.4,132.2z"/>
<path id="квадрицепсы" class="st0" d="M128,442.8c-0.4-5.9-0.1-10.6-1.1-15.1c-1.1-5-5.5-7.1-10.2-8.3
	c2.4-8.6,1.1-16.9-0.8-25.1c-2.2-9.4-4.7-18.8-7.5-28c-3.1-9.8-3.4-19.8-2.2-29.6c1.2-10.2,3.8-20.2,5.8-30.3c0.5,0,1,0,1.5,0
	c0.6,1.8,1.3,3.5,1.7,5.3c6.7,25.4,13.4,50.9,20.2,76.3c2.1,7.8,1.3,15.7,0.1,23.4c-1.4,9-3.6,17.8-5.5,26.7
	C129.7,439.3,129,440.5,128,442.8z M190.6,306.2c-0.2,0.6-0.4,1.2-0.5,1.8c-4.6,17.5-9.2,35-13.8,52.5c-2.6,9.9-5.5,19.7-7.7,29.7
	c-2.6,11.9,0.5,23.6,2.7,35.2c1.1,5.5,2.7,10.9,4.1,16.4c0.4,0,0.7,0,1.1,0c-0.2-9.7-1.7-20,11-22.4c-0.4-2.5-1.1-4.5-1.1-6.5
	c-0.3-12.6,2.4-24.8,5.8-36.8c1.8-6.3,5-12.6,5.5-19c0.7-10,0-20.2-1.1-30.2c-0.8-7.1-3.2-14-4.9-21
	C191.4,306,191,306.1,190.6,306.2z M112.1,279.2c-0.3,1-0.8,2.1-0.7,3.1c0.8,5.4,1.4,10.9,2.8,16.2c3.7,14.7,7.8,29.4,11.6,44.1
	c3.7,14.2,7.3,28.5,11,42.7c0.5,2.1,1.2,4.1,1.8,6.2c0.5,0,0.9-0.1,1.4-0.1c0-2.8-0.2-5.5,0-8.3c0.7-10.2,1.3-20.4,2.3-30.6
	c1-9.9,2.4-19.8,3.8-29.6c0.9-6.5-2-10.9-7.2-14c-8.3-4.9-13.9-12.3-19.1-20c-2.2-3.3-4.4-6.6-6.6-9.8
	C112.9,279,112.5,279.1,112.1,279.2z M166.1,391.6c1.1-4.9,2.1-9.9,3.3-14.8c2.7-10.5,5.5-20.9,8.3-31.3
	c3.4-12.8,6.9-25.5,10.1-38.3c2-7.9,3.5-16,5-24c0.2-1.3-0.4-2.8-0.8-5.2c-1.3,1.6-1.8,2.1-2.2,2.7c-0.7,0.9-1.3,1.8-1.9,2.7
	c-6.5,9.9-12.9,19.8-23.5,26c-3.5,2-6.6,5.3-6.3,9.9c0.5,7.6,1.2,15.2,2,22.7c1.4,13,3.1,25.9,4.5,38.9c0.4,3.4,0.1,6.9,0.1,10.4
	C165.2,391.5,165.6,391.6,166.1,391.6z M115.4,413.7c-0.7-8.4-1.4-16.9-3.2-25.1c-3.1-13.8-7-27.4-10.8-41.1c-1-3.6-2.4-7.2-6-9.9
	c-0.4,1.8-0.8,3-0.9,4.2c-0.6,8.9-1.4,17.9-1.5,26.8c-0.1,9.8,2.8,19.1,6.3,28.3c3.2,8.3,9.9,15.6,7.8,25.5
	C112.4,421.9,115.8,418.6,115.4,413.7z M196.9,420.6c-0.3-4.9,1.3-9.2,3.2-13.6c3.6-8.5,7.2-17.2,9.5-26.2
	c2.9-11.2,1.6-22.8,0.8-34.3c-0.2-2.9-0.9-5.7-1.5-9c-3.7,3.3-4.3,4.9-7,14.7c-3.3,12-7.3,23.8-10.1,36c-1.9,8.2-2.5,16.7-3.1,25.2
	c-0.3,4.8,2.7,7.9,7.7,9.2C196.7,421.8,197,421.2,196.9,420.6z M195.9,274.6c-0.8,3.4-1.6,6.8-2,10.2c-0.9,7.6-2.3,15.1,0.6,22.8
	c4.1,10.7,7.4,21.7,6.6,33.4c0,0.5,0.4,1,0.9,2.4c1.3-1.9,2.7-3.2,3.1-4.7c1-4.2,1.9-8.5,2.3-12.8c1.7-19.1-6.6-36.5-10.1-55.1
	C196.9,272.1,196.2,273.3,195.9,274.6z M102.7,342.3c0.1-0.7,0.3-1.4,0.3-2.1c0-9.1,1.8-17.7,4.7-26.4c2.1-6.3,3.8-13.1,3.8-19.6
	c0-7-2.2-14-3.5-20.9c-0.2-1-0.8-1.8-1.3-2.8c-2.5,10-5,19.6-7.3,29.2c-2.9,12.3-3.7,24.7-1,37.1c0.5,2.1,2.1,4,3.1,6.1
	C101.9,342.7,102.3,342.5,102.7,342.3z M384.2,299.8c-1.4,13.3-2.4,26.7-4.3,40c-2.9,19.6-0.1,38.5,5.9,57.1
	c0.9,2.9,2.3,5.6,3.4,8.4c-0.1-5.2-0.8-10.2-1.9-15.1c-3.9-18.3-2.7-36.7-0.3-55.1c1-7.3,4-14.4,1.5-22c-1.4-4.4-2.4-9-3.6-13.5
	C384.7,299.6,384.5,299.7,384.2,299.8z M485.9,405c0.5-0.8,1.2-1.6,1.5-2.5c5.5-15,9.7-30.2,9-46.3c-0.5-10.8-1.9-21.6-3-32.4
	c-0.8-8.1-1.5-16.2-2.3-24.3c-0.3-0.1-0.6-0.1-0.9-0.2c-1.5,7-3.1,14-4.6,21c-0.1,0.6-0.1,1.3,0,1.9c1.1,5.9,2.6,11.7,3.3,17.6
	c2,15.8,2.9,31.6-0.3,47.4c-1.2,5.9-2.2,11.7-3.3,17.6C485.4,404.8,485.6,404.9,485.9,405z"/>
<path id="разгибатель_спины" class="st0" d="M452.5,248.8c-1.7-7.4-3.3-14.8-5.3-22.2c-2.1-7.7-4.5-15.2-7-22.8
	c-0.4-1.2-1.7-2-2.5-3c-0.9,0.9-2.2,1.6-2.7,2.7c-1.7,4.1-3.3,8.3-4.5,12.6c-2.5,9.1-5,18.3-7.1,27.5c-0.7,3.1-1.4,6.8-0.3,9.5
	c2.9,6.9,6.7,13.5,10.5,20c1.7,3.1,5.3,3,7.5,0.3c0.8-0.9,1.4-2.1,2-3.2c2.7-5.3,5.5-10.5,8.2-15.8c0.6-1.2,1.1-2.4,1.6-3.5
	C452.8,250,452.6,249.4,452.5,248.8z"/>
<path id="локти" class="st0" d="M354.6,203.5c-0.5,1.8-1.2,3.3-1.2,4.8c-0.1,2.1-0.4,5.2,0.7,6c1.7,1.2,4.5,0.9,6.9,0.9
	c1.8,0,3.5-0.7,5.3-1.1c0.3,0.3,0.5,0.6,0.8,0.8c-2.2,3.3-4.4,6.6-6.7,9.9c-0.2,0.3-1.1,0.7-1.3,0.5c-3.3-2.3-6.1,0.4-9.1,0.8
	c-3,0.4-5.4-1.1-6.1-4.1C342.4,215.6,347.6,206.2,354.6,203.5z M515.9,224.4c2.9,0.5,5.7,0.9,8.6,1.5c4.2,0.8,6.9-1,6.6-5.2
	c-0.3-3.7-1-7.6-2.7-10.7c-1.5-2.8-4.5-4.7-6.9-7c-0.3,0.3-0.7,0.6-1,0.9c0.4,1.3,0.9,2.5,1,3.9c0.2,2.1,0.9,4.7,0,6.2
	c-1.5,2.5-4.5,2.2-7.1,1.4c-1.8-0.5-3.7-0.9-5.6-1.3c-0.2,0.3-0.5,0.6-0.7,0.9c2.4,3.6,4.8,7.2,7.2,10.9
	C515.5,225.3,515.7,224.9,515.9,224.4z"/>
<path id="трапеции" class="st0" d="M380.4,132.2c1-0.9,1.8-2.4,2.9-2.8c8.9-3,17.8-6.5,26.9-8.5c7.3-1.6,15-2.5,22.6-0.4
	c2.6,0.7,3.5,2,3.5,4.8c-0.1,23.1,0,46.2-0.1,69.3c0,1.4-0.7,2.7-1,4.1c-1.5-0.5-3.4-0.6-4.3-1.6c-6-6.3-11.9-12.6-17.6-19.3
	c-3.6-4.3-6.6-9-9.9-13.5c-4.1-5.6-5.4-12.2-6.6-18.8c-0.9-5.2-3.3-8.9-8.8-10.2c-2.7-0.6-5.2-2.1-7.8-3.3
	C380.3,132,380.4,132.2,380.4,132.2z M494.6,130.9c-0.9-0.5-1.8-1.2-2.8-1.5c-9-2.9-17.8-6.6-27-8.3c-7.2-1.4-14.8-0.6-22.3-0.4
	c-3,0.1-4.2,2.1-3.9,5.2c0.5,4.8,1.1,9.7,1,14.6c-0.2,18.1-0.7,36.2-1,54.3c0,1.3,0.7,2.7,1.1,4c1.3-0.4,3.1-0.4,4-1.3
	c4.8-4.7,9.7-9.3,13.9-14.4c9.8-11.9,20-23.7,21.3-40.2c0.2-3,2.4-5.5,6-6.5c3.4-0.9,6.6-2.7,9.8-4.1
	C494.6,131.7,494.6,131.3,494.6,130.9z M488.4,172.7c1.7-0.9,3.1-3.1,3.6-5c2.2-7.4-0.4-13.7-5.5-19c-1.1-1.2-2.7-1.8-4.1-2.7
	c-0.7,1.4-1.7,2.7-2,4.2c-1.8,8.1-4.5,15.8-10,22.5C477.3,177.6,480.4,176.8,488.4,172.7z M396.8,157.6c-1.2-3-1.7-6.2-2.5-9.3
	s-2.5-3-4.6-1.2c-5.8,4.9-8.8,15.3-6.5,22.4c0.2,0.7,0.6,1.6,1.1,1.8c4.1,1.7,8.1,3.8,12.4,4.5c2.3,0.4,5.1-1.6,7.4-2.4
	C401.5,167.6,398.9,162.7,396.8,157.6z M111.7,122.2c6.3-3.6,12.7-7.2,19.4-11c2.7,6.4,5.2,12.2,8,18.9c-9.5-2.5-18.2-4.7-26.9-7
	C112.1,122.8,111.9,122.5,111.7,122.2z M165.2,130.2c9.7-2.6,18.4-4.8,27-7.1c0.1-0.3,0.3-0.6,0.4-0.9c-6.4-3.6-12.8-7.2-19.5-10.9
	C170.3,118,167.9,123.8,165.2,130.2z M385.8,126.5c0.5,0,1,0.1,1.4-0.1c13.5-6,27.7-8.4,42.4-8.7c5.9-0.1,7.1-1.4,7.1-7.3
	c0-1.9-0.6-2.8-2.5-2.8c-4.9,0.2-9.9-0.8-14,3.3c-1.5,1.5-3.8,2.3-5.9,3.1c-7.2,2.7-14.5,5.1-21.6,7.9c-2.5,1-4.8,2.5-7.2,3.8
	C385.5,125.9,385.6,126.2,385.8,126.5z M489.9,125.5c-2.8-1.3-5.4-2.7-8.3-3.9c-8.6-3.5-17.7-6-25.8-10.5c-5-2.8-9.7-3.2-14.8-3.3
	c-1.8,0-2.6,0.5-2.6,2.6c0,5.5,1.4,7.2,6.9,7.2c10.5,0.2,20.8,1.4,30.8,4.5c4.5,1.4,8.9,2.9,13.3,4.3
	C489.6,126.2,489.8,125.8,489.9,125.5z"/>
<path id="шея" class="st0" d="M133.5,94.6c0.6,0.7,1.3,1.4,1.8,2.2c2.7,4.9,6.8,7.8,12.4,8.4c2.7,0.3,3.5,1.6,3.2,4.2
	c-0.5,4.6-0.7,9.1-1.1,13.7c-0.2,2.1-0.6,4.2-0.9,6.3c-0.3,2.5-2.2,3.2-4,2.7c-1.4-0.3-3-1.5-3.6-2.7c-2.3-5.3-4.8-10.7-6.3-16.3
	c-1.6-5.9-2.1-12.1-3-18.2C132.5,94.9,133,94.7,133.5,94.6z M155.6,105.6c-2.8,0.2-2.7,2.4-2.3,4.5c0.4,2.7,0.9,5.4,1.2,8
	c0.4,3.8,0.3,7.8,1,11.5c0.2,1.1,2.1,2.5,3.3,2.5c1.3,0,3.3-1,3.9-2.2c1.8-3.4,3-7.1,4.6-10.6c3.5-7.9,4.6-16.1,3.5-24.7
	C167.2,100.6,162.8,105,155.6,105.6z M438.4,98c0,9.1-0.7,7.4,7.8,7.7c2.6,0.1,3.6-0.8,3.6-3.4c0.1-5.7,0.5-11.5,0.3-17.2
	c-0.1-3.2-0.9-6.4-1.7-9.5c-0.9-3.4-3.5-3.3-6.3-2.8c-2.7,0.4-4.2,1.5-3.9,4.6c0.3,4,0.1,8,0.1,12C438.4,92.2,438.4,95.1,438.4,98z
	 M436.1,89.3c0-4,0-8,0-12c0-4.1-1-4.9-5-5.1c-3.8-0.1-4.9,2.6-5.1,5.3c-0.5,6.8-0.7,13.7-0.7,20.5c0,7.8,0.1,7.8,8,7.3
	c2-0.1,2.9-0.8,2.8-2.9C436.1,98,436.2,93.6,436.1,89.3C436.2,89.3,436.1,89.3,436.1,89.3z M423,102.9c-0.1-6.7-0.3-13.5,0-20.2
	c0.1-3.1,1.4-6.2,1.9-9.3c0.2-1-0.2-2.9-0.8-3.1c-1.8-0.8-3.9-1-5.8-1.4c-0.4,2-1.1,3.9-1.1,5.9c0.1,4.9,0.6,9.8,0.7,14.8
	c0.1,6.3,0,12.6,0,19.5C423.1,106.6,423,106.6,423,102.9z M453.3,68c-1.4,1.2-2.8,2.4-4,3.5c0.6,1.6,1.3,3.1,1.8,4.6
	c2.9,8.7,1.4,17.6,1,26.4c-0.2,3.3,0.5,5.2,4.2,6c0.3-1,0.9-2,0.9-3.1c0.1-5.5,0.5-11-0.2-16.4c-0.7-4.7-0.5-9.1,0.8-13.6
	C459.3,70.2,458.3,69,453.3,68C453.2,68.1,453.3,68,453.3,68z"/>
<path id="бицепс_бедра" class="st0" d="M456.9,432.9c-4.9-4-5.2-8.8-5.9-13.1c-2.6-15.9-3.1-32-2.5-48.1
	c0.4-10.7-2.9-20.6-5.2-30.7c-1.8-7.7-1.8-15.8-2.2-23.7c-0.2-3.6,2.2-4.8,4.7-2.7c3.4,2.9,7.4,3.4,11.5,3.6c3.6,0.2,5,2,5,5.5
	c0.3,9.8,0.4,19.7,1.3,29.5c0.6,6.7,2,13.3,3.4,19.9c1.2,5.5,1.2,10.8,0,16.3c-2.4,10.3-4.3,20.7-6.6,31
	C459.5,424.3,458.2,428.2,456.9,432.9z M419.4,432.2c0.8-1.2,2.1-2.2,2.4-3.5c1.3-5.6,3-11.1,3.4-16.8c0.9-13.3,1.5-26.7,1.5-40
	c0-9.7,2.2-18.9,4.4-28.2c2.1-8.5,2.4-17.4,3-26.2c0.3-4-2-4.7-5.3-3c-3.1,1.6-6.5,2.9-9.9,3.5c-5.5,0.9-5.7,0.8-5.7,6.5
	c0,15.9-1.2,31.6-4.8,47.2c-1.1,4.6-1.4,9.7-0.6,14.3c1.9,11.5,4.5,22.9,7,34.4c0.9,4,2.1,7.9,3.2,11.8
	C418.4,432.2,418.9,432.2,419.4,432.2z M483.9,433.1c-0.2-3.7-0.6-7.4-0.6-11.1c0.1-8.3,0.1-16.7,0.7-24.9
	c0.8-10.1,2.9-20.2,3.1-30.4c0.2-10.7-1-21.4-2.2-32.1c-0.4-3.4-1.6-7.4-3.9-9.7c-2.6-2.7-6.7-4.2-10.3-5.5
	c-4.7-1.6-6.3-0.4-6.1,4.6c0.4,10.7,0.5,21.5,2.2,32.1c3.2,20,7.2,39.9,11.1,59.8c1.2,5.9,3.2,11.6,4.9,17.3
	C483.1,433.3,483.5,433.2,483.9,433.1z M391.9,432.7c0.3-0.3,0.8-0.6,0.9-1c2.8-11.2,5.6-22.4,8.2-33.7c0.6-2.6,0.3-5.5,0.8-8.2
	c2.6-14.6,5.6-29.1,7.8-43.8c1.1-7.5,0.7-15.2,0.8-22.8c0-2.1-0.3-4.1-3-4.4c-6.1-0.8-15.7,5.8-16.6,12c-1.2,8.4-1.9,16.9-2.7,25.3
	c-1.3,14-0.4,27.9,3,41.6c1.7,6.8,1.9,13.5,1.1,20.4c-0.6,4.8-0.9,9.6-1.3,14.4C391.3,432.5,391.6,432.6,391.9,432.7z M470.3,388.3
	c-2,5.1-3.2,10.4-4.2,15.7c-1.5,7.9-1.4,7.9,5.8,5.4c0.4-0.2,0.9-0.3,1.5-0.5C472.3,401.9,471.3,395.1,470.3,388.3z M404.9,388.1
	c-0.2,1.2-0.5,2.3-0.6,3.5c-0.6,4.3-1.2,8.6-1.7,12.9c-0.2,1.5-0.4,4.3-0.1,4.4c2.4,0.6,4.7,4,7.8,0.8c-1.5-7.1-3-14.3-4.5-21.6
	C405.5,388.1,405.2,388.1,404.9,388.1z"/>
<path id="кор" class="st0" d="M161.2,297.9c1.7-6.3,3.4-12.6,5.1-18.8c3.1-11,7.7-21.7,7.1-33.4c-0.1-2.8,1-4.6,4.4-3.5
	c4.5,1.4,7.9-0.8,11.2-3.5c3-2.5,3.7-2.1,4.3,1.8c0.9,5.4,1.6,10.8,2.7,16.2c1,5,0.1,9.3-2.7,13.4c-6.8,9.9-13,20.3-22.7,27.9
	c-1.4,1.1-2.8,2.1-4.3,2.8c-1.2,0.6-2.8,1.2-3.8,0.7C161.8,301.1,161.7,299.2,161.2,297.9z M141.9,293
	c-3.8-16.3-11.4-31.7-11.5-48.9c0-0.8-1.9-2.4-2.5-2.2c-5.4,1.7-9.4-0.4-13.2-3.8c-2.2-2-3.4-1.1-3.9,1.8c-0.6,4.1-1.7,8.1-2.3,12.1
	c-1.1,7.1-1.5,14,3.7,20.1c4.3,5.1,7.4,11.2,11.9,16.2c4.1,4.7,9.1,8.7,14.1,12.5c2.8,2.2,4.6,0.9,4.5-3.4
	C142.5,296.5,142.3,294.7,141.9,293z M105.3,191.1c0.5,7.6,1.2,15.1,1.8,22.7c0.6,7.9,3.5,15,8.6,21c2.1,2.5,4.7,5.6,8.5,4.1
	c3.8-1.5,3.5-5.4,3.2-8.8c-0.4-5.2-1.6-10.4-1.5-15.6c0.3-8.5-1.2-17.2,2.3-25.4c0.3-0.6,0.2-1.4,0.2-1.2
	c-7.5-1.4-14.7-2.8-22.7-4.2C105.6,186.2,105.1,188.7,105.3,191.1z M175.6,188c0-0.3-0.2,0.3,0,0.7c2.8,5.3,2.7,10.9,2.3,16.7
	c-0.5,6.7-0.4,13.4-0.7,20.1c-0.1,2.7-0.6,5.5-0.2,8.2c0.3,1.9,1.4,4.4,2.9,5.1c1.4,0.7,4.2-0.2,5.7-1.3c5.3-3.9,8.8-9.5,9.8-15.8
	c1.8-10.5,2.5-21.2,3.5-31.9c0.2-2-0.4-4.1-0.7-6C190.4,185.3,183.1,186.6,175.6,188z M202.2,205.5c3.2-10.1,6.7-19.4,4-30.2
	C201.2,179.5,198.9,197.9,202.2,205.5z M103.5,205.5c-1.2-10.6,2.3-20.8-4.7-30.5C95.7,181.8,98.5,200.4,103.5,205.5z M482.6,257.3
	c-1.1-6.9-2.1-13.7-3.2-20.6c-0.3,0-0.6,0-1,0c-1.1,4-2.3,7.9-3.4,11.9c-0.2,0.8-0.4,2,0.1,2.4c2,2.4,4.3,4.6,6.5,6.9
	C481.9,257.7,482.3,257.5,482.6,257.3z M398.6,243.9c-0.5-1.8-0.8-3.6-1.3-5.4c-0.2-0.7-0.7-1.3-1.5-2.7c-1.1,7.8-2.2,14.6-3.3,22
	C400,253,400.8,251,398.6,243.9z"/>
</svg>
